0
SECTION
2
HEADER
9
$ANGDIR
70
1
9
$AUNITS
70
0
9
$PROJECTNAME
1
UV Sterlizer
9
$TDCREATE
40
2459032.04736674
9
$INSUNITS
70
4
0
ENDSEC
0
SECTION
2
ENTITIES
0
POLYLINE
66
1
8
outline
10
0.0
20
0.0
30
0.0
70
1
0
VERTEX
8
0
10
-0.2
20
60.2
30
0
0
VERTEX
8
0
10
0
20
0
30
0
0
VERTEX
8
0
10
52.2
20
0
30
0
0
VERTEX
8
0
10
52
20
60.2
30
0
0
VERTEX
8
0
10
-0.2
20
60.2
30
0
0
SEQEND
0
POLYLINE
66
1
8
holes
10
0.0
20
0.0
30
0.0
70
1
0
VERTEX
8
0
10
35.550000000000004
20
9.08
30
0
0
VERTEX
8
0
10
38.35
20
9.08
30
0
0
VERTEX
8
0
10
38.35
20
10.08
30
0
0
VERTEX
8
0
10
35.550000000000004
20
10.08
30
0
0
VERTEX
8
0
10
35.550000000000004
20
9.08
30
0
0
SEQEND
0
POLYLINE
66
1
8
holes
10
0.0
20
0.0
30
0.0
70
1
0
VERTEX
8
0
10
35.300000000000004
20
15.180000000000001
30
0
0
VERTEX
8
0
10
38.6
20
15.180000000000001
30
0
0
VERTEX
8
0
10
38.6
20
16.18
30
0
0
VERTEX
8
0
10
35.300000000000004
20
16.18
30
0
0
VERTEX
8
0
10
35.300000000000004
20
15.180000000000001
30
0
0
SEQEND
0
POLYLINE
66
1
8
holes
10
0.0
20
0.0
30
0.0
70
1
0
VERTEX
8
0
10
41.25
20
11.18
30
0
0
VERTEX
8
0
10
42.25
20
11.18
30
0
0
VERTEX
8
0
10
42.25
20
13.98
30
0
0
VERTEX
8
0
10
41.25
20
13.98
30
0
0
VERTEX
8
0
10
41.25
20
11.18
30
0
0
SEQEND
0
POLYLINE
66
1
8
1_copper
10
0.0
20
0.0
30
0.0
70
1
0
VERTEX
8
0
10
8.637275
20
13.84660625
30
0
42
0.9366029202216614
0
VERTEX
8
0
10
8.5319
20
17.0655
30
0
0
VERTEX
8
0
10
5.2005
20
17.0655
30
0
0
VERTEX
8
0
10
5.095125
20
17.05859375
30
0
42
0.9366029202216614
0
VERTEX
8
0
10
5.2005
20
13.8397
30
0
0
VERTEX
8
0
10
8.5319
20
13.8397
30
0
0
SEQEND
0
POLYLINE
66
1
8
1_copper
10
0.0
20
0.0
30
0.0
70
1
0
VERTEX
8
0
10
8.637275
20
7.826806250000001
30
0
42
0.9366029202216614
0
VERTEX
8
0
10
8.5319
20
11.0457
30
0
0
VERTEX
8
0
10
5.2005
20
11.0457
30
0
0
VERTEX
8
0
10
5.095125
20
11.03879375
30
0
42
0.9366029202216614
0
VERTEX
8
0
10
5.2005
20
7.8199000000000005
30
0
0
VERTEX
8
0
10
8.5319
20
7.8199000000000005
30
0
0
SEQEND
0
POLYLINE
66
1
8
1_copper
10
0.0
20
0.0
30
0.0
70
1
0
VERTEX
8
0
10
8.637275
20
3.2294062500000003
30
0
42
0.9366029202216614
0
VERTEX
8
0
10
8.5319
20
6.448300000000001
30
0
0
VERTEX
8
0
10
5.2005
20
6.448300000000001
30
0
0
VERTEX
8
0
10
5.095125
20
6.4413937500000005
30
0
42
0.9366029202216614
0
VERTEX
8
0
10
5.2005
20
3.2225
30
0
0
VERTEX
8
0
10
8.5319
20
3.2225
30
0
0
SEQEND
0
POLYLINE
66
1
8
1_copper
10
0.0
20
0.0
30
0.0
70
1
0
VERTEX
8
0
10
18.644875000000003
20
3.2294062500000003
30
0
42
0.9366029202216614
0
VERTEX
8
0
10
18.5395
20
6.448300000000001
30
0
0
VERTEX
8
0
10
15.2081
20
6.448300000000001
30
0
0
VERTEX
8
0
10
15.102725000000001
20
6.4413937500000005
30
0
42
0.9366029202216614
0
VERTEX
8
0
10
15.2081
20
3.2225
30
0
0
VERTEX
8
0
10
18.5395
20
3.2225
30
0
0
SEQEND
0
POLYLINE
66
1
8
16_copper
10
0.0
20
0.0
30
0.0
70
1
0
VERTEX
8
0
10
8.637275
20
13.84660625
30
0
42
0.9366029202216614
0
VERTEX
8
0
10
8.5319
20
17.0655
30
0
0
VERTEX
8
0
10
5.2005
20
17.0655
30
0
0
VERTEX
8
0
10
5.095125
20
17.05859375
30
0
42
0.9366029202216614
0
VERTEX
8
0
10
5.2005
20
13.8397
30
0
0
VERTEX
8
0
10
8.5319
20
13.8397
30
0
0
SEQEND
0
POLYLINE
66
1
8
16_copper
10
0.0
20
0.0
30
0.0
70
1
0
VERTEX
8
0
10
8.637275
20
7.826806250000001
30
0
42
0.9366029202216614
0
VERTEX
8
0
10
8.5319
20
11.0457
30
0
0
VERTEX
8
0
10
5.2005
20
11.0457
30
0
0
VERTEX
8
0
10
5.095125
20
11.03879375
30
0
42
0.9366029202216614
0
VERTEX
8
0
10
5.2005
20
7.8199000000000005
30
0
0
VERTEX
8
0
10
8.5319
20
7.8199000000000005
30
0
0
SEQEND
0
POLYLINE
66
1
8
16_copper
10
0.0
20
0.0
30
0.0
70
1
0
VERTEX
8
0
10
8.637275
20
3.2294062500000003
30
0
42
0.9366029202216614
0
VERTEX
8
0
10
8.5319
20
6.448300000000001
30
0
0
VERTEX
8
0
10
5.2005
20
6.448300000000001
30
0
0
VERTEX
8
0
10
5.095125
20
6.4413937500000005
30
0
42
0.9366029202216614
0
VERTEX
8
0
10
5.2005
20
3.2225
30
0
0
VERTEX
8
0
10
8.5319
20
3.2225
30
0
0
SEQEND
0
POLYLINE
66
1
8
16_copper
10
0.0
20
0.0
30
0.0
70
1
0
VERTEX
8
0
10
18.644875000000003
20
3.2294062500000003
30
0
42
0.9366029202216614
0
VERTEX
8
0
10
18.5395
20
6.448300000000001
30
0
0
VERTEX
8
0
10
15.2081
20
6.448300000000001
30
0
0
VERTEX
8
0
10
15.102725000000001
20
6.4413937500000005
30
0
42
0.9366029202216614
0
VERTEX
8
0
10
15.2081
20
3.2225
30
0
0
VERTEX
8
0
10
18.5395
20
3.2225
30
0
0
SEQEND
0
POLYLINE
66
1
8
1_copper
10
0.0
20
0.0
30
0.0
70
1
0
VERTEX
8
0
10
29.2204
20
34.25645625
30
0
0
VERTEX
8
0
10
29.2204
20
34.80354375
30
0
0
VERTEX
8
0
10
28.83354375
20
35.190400000000004
30
0
0
VERTEX
8
0
10
28.28645625
20
35.190400000000004
30
0
0
VERTEX
8
0
10
27.899600000000003
20
34.80354375
30
0
0
VERTEX
8
0
10
27.899600000000003
20
34.25645625
30
0
0
VERTEX
8
0
10
28.28645625
20
33.8696
30
0
0
VERTEX
8
0
10
28.83354375
20
33.8696
30
0
0
SEQEND
0
POLYLINE
66
1
8
1_copper
10
0.0
20
0.0
30
0.0
70
1
0
VERTEX
8
0
10
31.1904
20
31.46645625
30
0
0
VERTEX
8
0
10
31.1904
20
32.013543750000004
30
0
0
VERTEX
8
0
10
30.803543750000003
20
32.400400000000005
30
0
0
VERTEX
8
0
10
30.256456250000003
20
32.400400000000005
30
0
0
VERTEX
8
0
10
29.869600000000002
20
32.013543750000004
30
0
0
VERTEX
8
0
10
29.869600000000002
20
31.46645625
30
0
0
VERTEX
8
0
10
30.256456250000003
20
31.079600000000003
30
0
0
VERTEX
8
0
10
30.803543750000003
20
31.079600000000003
30
0
0
SEQEND
0
POLYLINE
66
1
8
1_copper
10
0.0
20
0.0
30
0.0
70
1
0
VERTEX
8
0
10
26.373943750000002
20
29.5353375
30
0
42
0.9063472543261978
0
VERTEX
8
0
10
26.299434375
20
31.052000000000003
30
0
0
VERTEX
8
0
10
24.700565625
20
31.052000000000003
30
0
0
VERTEX
8
0
10
24.62605625
20
31.0446625
30
0
42
0.9063472543261978
0
VERTEX
8
0
10
24.700565625
20
29.528000000000002
30
0
0
VERTEX
8
0
10
26.299434375
20
29.528000000000002
30
0
0
SEQEND
0
POLYLINE
66
1
8
16_copper
10
0.0
20
0.0
30
0.0
70
1
0
VERTEX
8
0
10
26.373943750000002
20
29.5353375
30
0
42
0.5033576867823627
0
VERTEX
8
0
10
26.951671875000002
20
30.616190625
30
0
0
VERTEX
8
0
10
26.92909375
20
30.658431250000003
30
0
0
VERTEX
8
0
10
27.260662500000002
20
30.990000000000002
30
0
0
VERTEX
8
0
10
30.53
20
30.990000000000002
30
0
0
VERTEX
8
0
10
30.557196875000002
20
30.991240625000003
30
0
0
VERTEX
8
0
10
30.5843375
20
30.991971875
30
0
42
0.356390537871365
0
VERTEX
8
0
10
31.273781250000003
20
31.643625
30
0
0
VERTEX
8
0
10
31.27414375
20
31.649218750000003
30
0
0
VERTEX
8
0
10
31.275459375
20
31.657609375
30
0
0
VERTEX
8
0
10
31.279868750000002
20
31.725915625000003
30
0
0
VERTEX
8
0
10
31.279640625000003
20
31.734421875000002
30
0
0
VERTEX
8
0
10
31.28
20
31.740000000000002
30
0
0
VERTEX
8
0
10
31.28
20
32.56
30
0
0
VERTEX
8
0
10
31.279700000000002
20
32.56656875
30
0
0
VERTEX
8
0
10
31.279884375
20
32.57310625
30
0
42
0.16113935186375775
0
VERTEX
8
0
10
31.124081250000003
20
33.017784375000005
30
0
0
VERTEX
8
0
10
31.115281250000002
20
33.0278
30
0
0
VERTEX
8
0
10
31.088700000000003
20
33.060353125
30
0
0
VERTEX
8
0
10
31.06933125
20
33.080087500000005
30
0
0
VERTEX
8
0
10
31.06033125
20
33.09033125
30
0
0
VERTEX
8
0
10
29.090331250000002
20
35.060331250000004
30
0
0
VERTEX
8
0
10
29.070209375
20
35.078696875
30
0
0
VERTEX
8
0
10
29.0505125
20
35.097359375
30
0
42
0.35638946778050656
0
VERTEX
8
0
10
28.102215625000003
20
35.12408125
30
0
0
VERTEX
8
0
10
28.098009375
20
35.1203875
30
0
0
VERTEX
8
0
10
28.091137500000002
20
35.115378125
30
0
0
VERTEX
8
0
10
28.039721875
20
35.070196875
30
0
0
VERTEX
8
0
10
28.033878125
20
35.06403125
30
0
0
VERTEX
8
0
10
28.029668750000003
20
35.060331250000004
30
0
0
VERTEX
8
0
10
24.96966875
20
32.00033125
30
0
0
VERTEX
8
0
10
24.965228125
20
31.995462500000002
30
0
0
VERTEX
8
0
10
24.960484375
20
31.99098125
30
0
42
0.1611399997574087
0
VERTEX
8
0
10
24.756218750000002
20
31.566375
30
0
0
VERTEX
8
0
10
24.7553625
20
31.553093750000002
30
0
0
VERTEX
8
0
10
24.751134375
20
31.511256250000002
30
0
0
VERTEX
8
0
10
24.750875
20
31.4835625
30
0
0
VERTEX
8
0
10
24.75
20
31.470000000000002
30
0
0
VERTEX
8
0
10
24.75
20
31.052000000000003
30
0
0
VERTEX
8
0
10
24.700565625
20
31.052000000000003
30
0
42
0.9520795017710562
0
VERTEX
8
0
10
24.700565625
20
29.528000000000002
30
0
0
VERTEX
8
0
10
26.299434375
20
29.528000000000002
30
0
0
SEQEND
0
POLYLINE
66
1
8
16_copper
10
0.0
20
0.0
30
0.0
70
1
0
VERTEX
8
0
10
27.580662500000003
20
32.49
30
0
0
VERTEX
8
0
10
28.560000000000002
20
33.4693375
30
0
0
VERTEX
8
0
10
29.539337500000002
20
32.49
30
0
0
SEQEND
0
POLYLINE
66
1
8
1_copper
10
0.0
20
0.0
30
0.0
70
1
0
VERTEX
8
0
10
37.34394375
20
26.455337500000002
30
0
42
0.9063472543261978
0
VERTEX
8
0
10
37.269434375
20
27.972
30
0
0
VERTEX
8
0
10
35.670565625
20
27.972
30
0
0
VERTEX
8
0
10
35.596056250000004
20
27.964662500000003
30
0
42
0.9063472543261978
0
VERTEX
8
0
10
35.670565625
20
26.448
30
0
0
VERTEX
8
0
10
37.269434375
20
26.448
30
0
0
SEQEND
0
POLYLINE
66
1
8
1_copper
10
0.0
20
0.0
30
0.0
70
1
0
VERTEX
8
0
10
26.373943750000002
20
24.455337500000002
30
0
42
0.9063472543261978
0
VERTEX
8
0
10
26.299434375
20
25.972
30
0
0
VERTEX
8
0
10
24.700565625
20
25.972
30
0
0
VERTEX
8
0
10
24.62605625
20
25.964662500000003
30
0
42
0.9063472543261978
0
VERTEX
8
0
10
24.700565625
20
24.448
30
0
0
VERTEX
8
0
10
26.299434375
20
24.448
30
0
0
SEQEND
0
POLYLINE
66
1
8
1_copper
10
0.0
20
0.0
30
0.0
70
1
0
VERTEX
8
0
10
40.0704
20
24.81645625
30
0
0
VERTEX
8
0
10
40.0704
20
25.36354375
30
0
0
VERTEX
8
0
10
39.683543750000005
20
25.750400000000003
30
0
0
VERTEX
8
0
10
39.13645625
20
25.750400000000003
30
0
0
VERTEX
8
0
10
38.7496
20
25.36354375
30
0
0
VERTEX
8
0
10
38.7496
20
24.81645625
30
0
0
VERTEX
8
0
10
39.13645625
20
24.4296
30
0
0
VERTEX
8
0
10
39.683543750000005
20
24.4296
30
0
0
SEQEND
0
POLYLINE
66
1
8
1_copper
10
0.0
20
0.0
30
0.0
70
1
0
VERTEX
8
0
10
31.1904
20
21.30645625
30
0
0
VERTEX
8
0
10
31.1904
20
21.85354375
30
0
0
VERTEX
8
0
10
30.803543750000003
20
22.2404
30
0
0
VERTEX
8
0
10
30.256456250000003
20
22.2404
30
0
0
VERTEX
8
0
10
29.869600000000002
20
21.85354375
30
0
0
VERTEX
8
0
10
29.869600000000002
20
21.30645625
30
0
0
VERTEX
8
0
10
30.256456250000003
20
20.919600000000003
30
0
0
VERTEX
8
0
10
30.803543750000003
20
20.919600000000003
30
0
0
SEQEND
0
POLYLINE
66
1
8
1_copper
10
0.0
20
0.0
30
0.0
70
1
0
VERTEX
8
0
10
38.08065
20
14.687609375000001
30
0
42
0.9163307801196574
0
VERTEX
8
0
10
37.9936625
20
16.68
30
0
0
VERTEX
8
0
10
35.9063375
20
16.68
30
0
0
VERTEX
8
0
10
35.81935
20
16.672390625000002
30
0
42
0.9163307801196574
0
VERTEX
8
0
10
35.9063375
20
14.680000000000001
30
0
0
VERTEX
8
0
10
37.9936625
20
14.680000000000001
30
0
0
SEQEND
0
POLYLINE
66
1
8
16_copper
10
0.0
20
0.0
30
0.0
70
1
0
VERTEX
8
0
10
50.298203125
20
1.4239062500000002
30
0
0
VERTEX
8
0
10
50.325990625
20
1.42540625
30
0
42
0.3491976674788065
0
VERTEX
8
0
10
50.767775
20
1.86395
30
0
0
VERTEX
8
0
10
50.771196875
20
1.9197250000000001
30
0
42
0.002167197007865582
0
VERTEX
8
0
10
50.7712
20
1.9240593750000001
30
0
0
VERTEX
8
0
10
50.714415625
20
19.016987500000003
30
0
0
VERTEX
8
0
10
50.713415625
20
19.033871875000003
30
0
0
VERTEX
8
0
10
50.713159375000004
20
19.050790625
30
0
42
0.5145584766758402
0
VERTEX
8
0
10
50.019203125000004
20
19.475640625
30
0
0
VERTEX
8
0
10
50.010053125
20
19.47108125
30
0
0
VERTEX
8
0
10
49.999078125000004
20
19.466578125
30
0
0
VERTEX
8
0
10
49.979528125
20
19.45586875
30
0
0
VERTEX
8
0
10
49.964415625
20
19.4483375
30
0
0
VERTEX
8
0
10
49.83850625
20
19.375640625000003
30
0
0
VERTEX
8
0
10
49.286003125
20
19.227600000000002
30
0
0
VERTEX
8
0
10
36.41399375
20
19.227600000000002
30
0
0
VERTEX
8
0
10
35.861484375
20
19.375643750000002
30
0
0
VERTEX
8
0
10
35.366115625
20
19.661646875000002
30
0
0
VERTEX
8
0
10
35.182665625
20
19.845096875
30
0
0
VERTEX
8
0
10
35.1826375
20
19.845121875
30
0
0
VERTEX
8
0
10
34.731646875
20
20.2961125
30
0
0
VERTEX
8
0
10
34.44564375
20
20.791484375
30
0
0
VERTEX
8
0
10
34.2976
20
21.343993750000003
30
0
0
VERTEX
8
0
10
34.2976
20
22.78408125
30
0
0
VERTEX
8
0
10
34.296153125000004
20
22.8099625
30
0
0
VERTEX
8
0
10
34.294909375
20
22.835887500000002
30
0
42
0.14273568292938665
0
VERTEX
8
0
10
34.189228125
20
23.094931250000002
30
0
0
VERTEX
8
0
10
34.152096875000005
20
23.1366875
30
0
42
0.0006684388420158373
0
VERTEX
8
0
10
34.151153125
20
23.137634375
30
0
0
VERTEX
8
0
10
33.960043750000004
20
23.32874375
30
0
0
VERTEX
8
0
10
33.6724625
20
23.826853125
30
0
0
VERTEX
8
0
10
33.5236
20
24.382415625
30
0
0
VERTEX
8
0
10
33.5236
20
24.95758125
30
0
0
VERTEX
8
0
10
33.6724625
20
25.51314375
30
0
0
VERTEX
8
0
10
33.960043750000004
20
26.011253125
30
0
0
VERTEX
8
0
10
34.198790625
20
26.25
30
0
0
VERTEX
8
0
10
36.260000000000005
20
26.25
30
0
0
VERTEX
8
0
10
36.266568750000005
20
26.250300000000003
30
0
0
VERTEX
8
0
10
36.273106250000005
20
26.250115625000003
30
0
42
0.1146166296031619
0
VERTEX
8
0
10
36.602303125
20
26.332671875000003
30
0
0
VERTEX
8
0
10
36.626334375
20
26.34641875
30
0
0
VERTEX
8
0
10
36.629453125000005
20
26.34813125
30
0
0
VERTEX
8
0
10
36.632878125000005
20
26.345996875
30
0
42
0.09595683970019471
0
VERTEX
8
0
10
36.903625000000005
20
26.256218750000002
30
0
0
VERTEX
8
0
10
36.916906250000004
20
26.2553625
30
0
0
VERTEX
8
0
10
36.958743750000004
20
26.251134375000003
30
0
0
VERTEX
8
0
10
36.9864375
20
26.250875
30
0
0
VERTEX
8
0
10
37
20
26.25
30
0
0
VERTEX
8
0
10
38.7412
20
26.25
30
0
0
VERTEX
8
0
10
38.84035625
20
26.15084375
30
0
42
0.04088661557845872
0
VERTEX
8
0
10
38.90305625
20
26.09865625
30
0
0
VERTEX
8
0
10
38.924190625
20
26.0833875
30
0
0
VERTEX
8
0
10
38.925940625
20
26.0824
30
0
0
VERTEX
8
0
10
38.927571875000005
20
26.081240625
30
0
0
VERTEX
8
0
10
38.950225
20
26.068690625000002
30
0
42
0.018458329904312662
0
VERTEX
8
0
10
38.967053125
20
26.035834375
30
0
0
VERTEX
8
0
10
38.972903125
20
26.023596875000003
30
0
0
VERTEX
8
0
10
38.972934375
20
26.023540625000003
30
0
42
0.012965726284642593
0
VERTEX
8
0
10
38.986112500000004
20
26.0012125
30
0
0
VERTEX
8
0
10
38.986112500000004
20
26.001209375000002
30
0
0
VERTEX
8
0
10
38.986143750000004
20
26.00115625
30
0
42
0.08406120603856435
0
VERTEX
8
0
10
39.097075000000004
20
25.8764
30
0
0
VERTEX
8
0
10
39.109246875000004
20
25.867703125000002
30
0
0
VERTEX
8
0
10
39.119153125000004
20
25.859815625
30
0
0
VERTEX
8
0
10
38.87966875
20
25.62033125
30
0
0
VERTEX
8
0
10
38.833528125
20
25.569771875
30
0
42
0.8955651421704383
0
VERTEX
8
0
10
39.867784375
20
24.49591875
30
0
0
VERTEX
8
0
10
39.94033125
20
24.55966875
30
0
0
VERTEX
8
0
10
39.97064375
20
24.58998125
30
0
0
VERTEX
8
0
10
40.20313125
20
24.58998125
30
0
0
VERTEX
8
0
10
40.039100000000005
20
24.42595
30
0
0
VERTEX
8
0
10
40.020621875
20
24.405284375
30
0
0
VERTEX
8
0
10
40.002690625
20
24.385334375000003
30
0
42
0.5883412914663922
0
VERTEX
8
0
10
40.332878125
20
23.575984375
30
0
0
VERTEX
8
0
10
40.38864375
20
23.572412500000002
30
0
42
0.002004709864245277
0
VERTEX
8
0
10
40.392653125
20
23.572396875000003
30
0
0
VERTEX
8
0
10
44.4472
20
23.572396875000003
30
0
0
VERTEX
8
0
10
44.473721875
20
23.57388125
30
0
0
VERTEX
8
0
10
44.5003375
20
23.575228125000002
30
0
42
0.3501289138148639
0
VERTEX
8
0
10
44.943771875
20
24.01395
30
0
0
VERTEX
8
0
10
44.947193750000004
20
24.069725000000002
30
0
42
0.0013359422777441622
0
VERTEX
8
0
10
44.9472
20
24.072396875000003
30
0
0
VERTEX
8
0
10
44.9472
20
24.321815625000003
30
0
0
VERTEX
8
0
10
44.946815625
20
24.328668750000002
30
0
0
VERTEX
8
0
10
44.9470125
20
24.33555
30
0
42
0.027962751970436323
0
VERTEX
8
0
10
44.94235625
20
24.391237500000003
30
0
0
VERTEX
8
0
10
44.93885
20
24.40848125
30
0
0
VERTEX
8
0
10
44.93475
20
24.432703125
30
0
0
VERTEX
8
0
10
44.931931250000005
20
24.44251875
30
0
0
VERTEX
8
0
10
44.9301625
20
24.451225
30
0
0
VERTEX
8
0
10
44.827600000000004
20
24.83399375
30
0
0
VERTEX
8
0
10
44.827600000000004
20
27.337600000000002
30
0
0
VERTEX
8
0
10
44.826125000000005
20
27.363950000000003
30
0
0
VERTEX
8
0
10
44.824768750000004
20
27.3907375
30
0
42
0.3501289138148639
0
VERTEX
8
0
10
44.386046875000005
20
27.834171875000003
30
0
0
VERTEX
8
0
10
44.330271875
20
27.83759375
30
0
42
0.0013359422777441622
0
VERTEX
8
0
10
44.327600000000004
20
27.837600000000002
30
0
0
VERTEX
8
0
10
43.39399375
20
27.837600000000002
30
0
0
VERTEX
8
0
10
43.1231875
20
27.910162500000002
30
0
0
VERTEX
8
0
10
43.11645
20
27.91156875
30
0
0
VERTEX
8
0
10
43.109871875
20
27.913534375
30
0
42
0.027962403053317732
0
VERTEX
8
0
10
43.054878125
20
27.923453125
30
0
0
VERTEX
8
0
10
43.037234375000004
20
27.924534375
30
0
0
VERTEX
8
0
10
43.01285625
20
27.926834375000002
30
0
0
VERTEX
8
0
10
43.00268125
20
27.926653125
30
0
0
VERTEX
8
0
10
42.993778125
20
27.927200000000003
30
0
0
VERTEX
8
0
10
42.817275
20
27.927200000000003
30
0
0
VERTEX
8
0
10
42.76355
20
27.980925000000003
30
0
42
0.38029828409911864
0
VERTEX
8
0
10
42.100196875
20
28.019831250000003
30
0
0
VERTEX
8
0
10
42.0583375
20
27.982809375000002
30
0
42
0.001337985414578977
0
VERTEX
8
0
10
42.056440625
20
27.980921875
30
0
0
VERTEX
8
0
10
42.00271875
20
27.927200000000003
30
0
0
VERTEX
8
0
10
41.82621875
20
27.927200000000003
30
0
0
VERTEX
8
0
10
41.819365625
20
27.926815625
30
0
0
VERTEX
8
0
10
41.812484375000004
20
27.9270125
30
0
42
0.027962751970436323
0
VERTEX
8
0
10
41.756796875
20
27.92235625
30
0
0
VERTEX
8
0
10
41.739553125
20
27.918850000000003
30
0
0
VERTEX
8
0
10
41.715331250000006
20
27.91475
30
0
0
VERTEX
8
0
10
41.705515625000004
20
27.911931250000002
30
0
0
VERTEX
8
0
10
41.696809375
20
27.910162500000002
30
0
0
VERTEX
8
0
10
41.426003125
20
27.837600000000002
30
0
0
VERTEX
8
0
10
38.74668125
20
27.837600000000002
30
0
0
VERTEX
8
0
10
38.736615625
20
27.8370375
30
0
0
VERTEX
8
0
10
38.72655
20
27.83719375
30
0
42
0.13839532902878354
0
VERTEX
8
0
10
38.464625000000005
20
27.750446875
30
0
0
VERTEX
8
0
10
38.46404375
20
27.75
30
0
0
VERTEX
8
0
10
37.769628125000004
20
27.75
30
0
0
VERTEX
8
0
10
37.74434375
20
27.775284375000002
30
0
42
0.17351652030568715
0
VERTEX
8
0
10
37.269434375
20
27.972
30
0
0
VERTEX
8
0
10
35.670565625
20
27.972
30
0
0
VERTEX
8
0
10
35.596056250000004
20
27.964662500000003
30
0
42
0.14833590475328204
0
VERTEX
8
0
10
35.19565625
20
27.775284375000002
30
0
0
VERTEX
8
0
10
35.170371875
20
27.75
30
0
0
VERTEX
8
0
10
34.65833125
20
27.75
30
0
0
VERTEX
8
0
10
34.655921875000004
20
27.754887500000002
30
0
42
0.10308284589158476
0
VERTEX
8
0
10
34.521525000000004
20
27.90835625
30
0
0
VERTEX
8
0
10
34.514421875000004
20
27.913059375
30
0
0
VERTEX
8
0
10
34.5068
20
27.91904375
30
0
0
VERTEX
8
0
10
34.4853375
20
27.932315625
30
0
0
VERTEX
8
0
10
34.47048125
20
27.94215
30
0
0
VERTEX
8
0
10
34.366746875000004
20
28.002040625000003
30
0
0
VERTEX
8
0
10
33.960043750000004
20
28.408743750000003
30
0
0
VERTEX
8
0
10
33.75
20
28.772553125
30
0
0
VERTEX
8
0
10
33.75
20
30.727443750000003
30
0
0
VERTEX
8
0
10
33.960043750000004
20
31.091253125
30
0
0
VERTEX
8
0
10
34.366743750000005
20
31.497953125000002
30
0
0
VERTEX
8
0
10
34.864853125
20
31.785534375
30
0
0
VERTEX
8
0
10
35.420415625000004
20
31.934396875
30
0
0
VERTEX
8
0
10
35.584384375
20
31.934396875
30
0
0
VERTEX
8
0
10
35.600784375
20
31.935315625
30
0
0
VERTEX
8
0
10
35.617184375
20
31.935475
30
0
42
0.08406186100513398
0
VERTEX
8
0
10
35.779603125
20
31.97408125
30
0
0
VERTEX
8
0
10
35.789165625
20
31.978846875000002
30
0
0
VERTEX
8
0
10
35.8006375
20
31.98358125
30
0
0
VERTEX
8
0
10
35.819531250000004
20
31.99398125
30
0
0
VERTEX
8
0
10
35.834390625000005
20
32.0013875
30
0
0
VERTEX
8
0
10
35.891487500000004
20
32.034353125
30
0
0
VERTEX
8
0
10
36.443993750000004
20
32.182396875
30
0
0
VERTEX
8
0
10
36.788259375
20
32.182396875
30
0
0
VERTEX
8
0
10
36.815734375000005
20
32.183934375
30
0
0
VERTEX
8
0
10
36.842728125
20
32.185371875
30
0
42
0.5883388647695341
0
VERTEX
8
0
10
37.18154375
20
32.991146875
30
0
0
VERTEX
8
0
10
37.144634375
20
33.033103125000004
30
0
42
0.00200644761398192
0
VERTEX
8
0
10
37.141809375
20
33.035953125
30
0
0
VERTEX
8
0
10
36.98164375
20
33.196118750000004
30
0
0
VERTEX
8
0
10
36.8414625
20
33.43891875
30
0
0
VERTEX
8
0
10
36.8377125
20
33.44465
30
0
0
VERTEX
8
0
10
36.83443125
20
33.450725
30
0
42
0.0279616874811014
0
VERTEX
8
0
10
36.80255625
20
33.496621875
30
0
0
VERTEX
8
0
10
36.790896875
20
33.509803125000005
30
0
0
VERTEX
8
0
10
36.7752375
20
33.528728125
30
0
0
VERTEX
8
0
10
36.7678875
20
33.535818750000004
30
0
0
VERTEX
8
0
10
36.762
20
33.542478125
30
0
0
VERTEX
8
0
10
36.6372
20
33.667278125
30
0
0
VERTEX
8
0
10
36.6372
20
33.843778125
30
0
0
VERTEX
8
0
10
36.636815625000004
20
33.85063125
30
0
0
VERTEX
8
0
10
36.637012500000004
20
33.8575125
30
0
42
0.027962751970436323
0
VERTEX
8
0
10
36.63235625
20
33.9132
30
0
0
VERTEX
8
0
10
36.62885
20
33.93044375
30
0
0
VERTEX
8
0
10
36.62475
20
33.954665625000004
30
0
0
VERTEX
8
0
10
36.62193125
20
33.96448125
30
0
0
VERTEX
8
0
10
36.6201625
20
33.9731875
30
0
0
VERTEX
8
0
10
36.5476
20
34.24399375
30
0
0
VERTEX
8
0
10
36.5476
20
34.816003125
30
0
0
VERTEX
8
0
10
36.6201625
20
35.086809375
30
0
0
VERTEX
8
0
10
36.62156875
20
35.093546875
30
0
0
VERTEX
8
0
10
36.623534375
20
35.100125
30
0
42
0.027962403053317732
0
VERTEX
8
0
10
36.633453125
20
35.15511875
30
0
0
VERTEX
8
0
10
36.634534375
20
35.172762500000005
30
0
0
VERTEX
8
0
10
36.636834375
20
35.197140625
30
0
0
VERTEX
8
0
10
36.636653125
20
35.207315625
30
0
0
VERTEX
8
0
10
36.6372
20
35.21621875
30
0
0
VERTEX
8
0
10
36.6372
20
35.39271875
30
0
0
VERTEX
8
0
10
36.762
20
35.51751875
30
0
0
VERTEX
8
0
10
36.766578125
20
35.5226375
30
0
0
VERTEX
8
0
10
36.771584375
20
35.52736875
30
0
42
0.02796118655573211
0
VERTEX
8
0
10
36.807668750000005
20
35.570034375
30
0
0
VERTEX
8
0
10
36.817434375000005
20
35.584784375000005
30
0
0
VERTEX
8
0
10
36.83160625
20
35.604734375
30
0
0
VERTEX
8
0
10
36.836543750000004
20
35.613646875
30
0
0
VERTEX
8
0
10
36.8414625
20
35.621078125000004
30
0
0
VERTEX
8
0
10
36.98164375
20
35.86388125
30
0
0
VERTEX
8
0
10
37.386115625
20
36.268353125000004
30
0
0
VERTEX
8
0
10
37.628918750000004
20
36.408534375
30
0
0
VERTEX
8
0
10
37.63465
20
36.412284375
30
0
0
VERTEX
8
0
10
37.640725
20
36.415565625
30
0
42
0.0279616874811014
0
VERTEX
8
0
10
37.686621875
20
36.447440625
30
0
0
VERTEX
8
0
10
37.699803125
20
36.4591
30
0
0
VERTEX
8
0
10
37.718728125
20
36.474759375000005
30
0
0
VERTEX
8
0
10
37.72581875
20
36.482109375
30
0
0
VERTEX
8
0
10
37.732478125
20
36.487996875
30
0
0
VERTEX
8
0
10
37.857278125
20
36.612796875
30
0
0
VERTEX
8
0
10
38.033778125000005
20
36.612796875
30
0
0
VERTEX
8
0
10
38.040631250000004
20
36.613181250000004
30
0
0
VERTEX
8
0
10
38.0475125
20
36.612984375
30
0
42
0.027962751970436323
0
VERTEX
8
0
10
38.1032
20
36.617640625
30
0
0
VERTEX
8
0
10
38.12044375
20
36.621146875
30
0
0
VERTEX
8
0
10
38.144665625
20
36.625246875
30
0
0
VERTEX
8
0
10
38.15448125
20
36.628065625000005
30
0
0
VERTEX
8
0
10
38.1631875
20
36.629834375
30
0
0
VERTEX
8
0
10
38.43399375
20
36.702396875000005
30
0
0
VERTEX
8
0
10
39.006003125
20
36.702396875000005
30
0
0
VERTEX
8
0
10
39.276809375
20
36.629834375
30
0
0
VERTEX
8
0
10
39.283546875
20
36.628428125
30
0
0
VERTEX
8
0
10
39.290125
20
36.6264625
30
0
42
0.027962403053317732
0
VERTEX
8
0
10
39.345118750000005
20
36.616543750000005
30
0
0
VERTEX
8
0
10
39.3627625
20
36.6154625
30
0
0
VERTEX
8
0
10
39.387140625
20
36.6131625
30
0
0
VERTEX
8
0
10
39.397315625000005
20
36.61334375
30
0
0
VERTEX
8
0
10
39.40621875
20
36.612796875
30
0
0
VERTEX
8
0
10
39.582718750000005
20
36.612796875
30
0
0
VERTEX
8
0
10
39.70751875
20
36.487996875
30
0
0
VERTEX
8
0
10
39.712640625
20
36.48341875
30
0
0
VERTEX
8
0
10
39.717365625
20
36.478415625000004
30
0
42
0.027962455667137204
0
VERTEX
8
0
10
39.760034375000004
20
36.44233125
30
0
0
VERTEX
8
0
10
39.774750000000004
20
36.432587500000004
30
0
0
VERTEX
8
0
10
39.794734375000004
20
36.418390625
30
0
0
VERTEX
8
0
10
39.803640625
20
36.41345625
30
0
0
VERTEX
8
0
10
39.811075
20
36.408534375
30
0
0
VERTEX
8
0
10
39.9776
20
36.312390625
30
0
0
VERTEX
8
0
10
39.993425
20
36.304396875
30
0
0
VERTEX
8
0
10
40.008940625
20
36.295750000000005
30
0
42
0.5145583625901855
0
VERTEX
8
0
10
40.723853125000005
20
36.684303125
30
0
0
VERTEX
8
0
10
40.724434375
20
36.69378125
30
0
0
VERTEX
8
0
10
40.725934375
20
36.7046125
30
0
0
VERTEX
8
0
10
40.7265375
20
36.728096875
30
0
0
VERTEX
8
0
10
40.7276
20
36.745403125
30
0
0
VERTEX
8
0
10
40.7276
20
47.993053125
30
0
0
VERTEX
8
0
10
40.726153125
20
48.018934375
30
0
0
VERTEX
8
0
10
40.724909375
20
48.044859375
30
0
42
0.14273568292938665
0
VERTEX
8
0
10
40.619228125
20
48.303903125000005
30
0
0
VERTEX
8
0
10
40.582096875000005
20
48.345659375000004
30
0
42
0.0006684388420158373
0
VERTEX
8
0
10
40.581153125
20
48.34660625
30
0
0
VERTEX
8
0
10
39.54660625
20
49.381153125000004
30
0
0
VERTEX
8
0
10
39.5272875
20
49.398425
30
0
0
VERTEX
8
0
10
39.508071875
20
49.415884375000005
30
0
42
0.04298488448805599
0
VERTEX
8
0
10
39.436659375000005
20
49.463350000000005
30
0
0
VERTEX
8
0
10
39.4141125
20
49.476078125
30
0
0
VERTEX
8
0
10
39.412253125
20
49.47686875
30
0
0
VERTEX
8
0
10
39.410509375000004
20
49.477834375
30
0
42
0.08104356460746374
0
VERTEX
8
0
10
39.250171875
20
49.524328125000004
30
0
0
VERTEX
8
0
10
39.194390625000004
20
49.527596875
30
0
42
0.0006619605523134478
0
VERTEX
8
0
10
39.193053125
20
49.5276
30
0
0
VERTEX
8
0
10
39.142484375
20
49.5276
30
0
42
0.591142186094669
0
VERTEX
8
0
10
38.720115625000005
20
48.76000625
30
0
0
VERTEX
8
0
10
38.73010625
20
48.746187500000005
30
0
0
VERTEX
8
0
10
38.7492
20
48.71885
30
0
42
0.005417444467403008
0
VERTEX
8
0
10
38.755981250000005
20
48.7104
30
0
0
VERTEX
8
0
10
38.90159375
20
48.532975
30
0
0
VERTEX
8
0
10
39.092225
20
48.247671875
30
0
0
VERTEX
8
0
10
39.253990625
20
47.945034375
30
0
0
VERTEX
8
0
10
39.385303125
20
47.628012500000004
30
0
0
VERTEX
8
0
10
39.43930625
20
47.449993750000004
30
0
0
VERTEX
8
0
10
36.5930125
20
47.449993750000004
30
0
0
VERTEX
8
0
10
36.566490625
20
47.448509375
30
0
0
VERTEX
8
0
10
36.539875
20
47.447162500000005
30
0
42
0.2135493351114567
0
VERTEX
8
0
10
36.187509375000005
20
47.241181250000004
30
0
0
VERTEX
8
0
10
36.172003125
20
47.219715625
30
0
0
VERTEX
8
0
10
36.17135625
20
47.21856875
30
0
0
VERTEX
8
0
10
36.170565625
20
47.2174625
30
0
0
VERTEX
8
0
10
36.158893750000004
20
47.196525
30
0
0
VERTEX
8
0
10
36.107084375
20
47.19986875
30
0
0
VERTEX
8
0
10
36.0386625
20
47.198028125
30
0
0
VERTEX
8
0
10
36.0271125
20
47.196656250000004
30
0
0
VERTEX
8
0
10
36.018265625000005
20
47.212931250000004
30
0
42
0.0003851178994696855
0
VERTEX
8
0
10
36.016853125000004
20
47.2152
30
0
0
VERTEX
8
0
10
36.001512500000004
20
47.23691875
30
0
0
VERTEX
8
0
10
35.98626875
20
47.25874375
30
0
42
0.19960761523789322
0
VERTEX
8
0
10
35.65143125
20
47.446565625000005
30
0
0
VERTEX
8
0
10
35.595656250000005
20
47.4499875
30
0
42
0.0013359422777441622
0
VERTEX
8
0
10
35.592984375
20
47.449993750000004
30
0
0
VERTEX
8
0
10
32.746690625
20
47.449993750000004
30
0
0
VERTEX
8
0
10
32.80069375
20
47.628012500000004
30
0
0
VERTEX
8
0
10
32.93200625
20
47.945034375
30
0
0
VERTEX
8
0
10
33.093771875
20
48.247671875
30
0
0
VERTEX
8
0
10
33.284403125000004
20
48.532975
30
0
0
VERTEX
8
0
10
33.430015625
20
48.7104
30
0
0
VERTEX
8
0
10
33.4316375
20
48.712618750000004
30
0
0
VERTEX
8
0
10
33.433475
20
48.7146625
30
0
42
0.5874433938002658
0
VERTEX
8
0
10
33.1046125
20
49.523853125
30
0
0
VERTEX
8
0
10
33.08769375
20
49.524890625000005
30
0
0
VERTEX
8
0
10
33.054346875
20
49.52748125
30
0
42
0.00541767917407682
0
VERTEX
8
0
10
33.0435125
20
49.5276
30
0
0
VERTEX
8
0
10
31.019943750000003
20
49.5276
30
0
0
VERTEX
8
0
10
30.994062500000002
20
49.526153125
30
0
0
VERTEX
8
0
10
30.9681375
20
49.524909375
30
0
42
0.14273568292938665
0
VERTEX
8
0
10
30.70909375
20
49.419228125000004
30
0
0
VERTEX
8
0
10
30.667337500000002
20
49.382096875
30
0
42
0.0006684388420158373
0
VERTEX
8
0
10
30.666390625000002
20
49.381153125000004
30
0
0
VERTEX
8
0
10
22.675843750000002
20
41.390606250000005
30
0
0
VERTEX
8
0
10
22.658571875
20
41.3712875
30
0
0
VERTEX
8
0
10
22.641112500000002
20
41.352071875
30
0
42
0.1427356176412374
0
VERTEX
8
0
10
22.532668750000003
20
41.094171875
30
0
0
VERTEX
8
0
10
22.529400000000003
20
41.038390625000005
30
0
42
0.0006687526842779185
0
VERTEX
8
0
10
22.529396875
20
41.037053125
30
0
0
VERTEX
8
0
10
22.529396875
20
39.610743750000005
30
0
0
VERTEX
8
0
10
20.580253125000002
20
37.6616
30
0
0
VERTEX
8
0
10
17.823743750000002
20
37.6616
30
0
0
VERTEX
8
0
10
15.874600000000001
20
39.610743750000005
30
0
0
VERTEX
8
0
10
15.874600000000001
20
42.367253125000005
30
0
0
VERTEX
8
0
10
17.823743750000002
20
44.316396875
30
0
0
VERTEX
8
0
10
19.250053125
20
44.316396875
30
0
0
VERTEX
8
0
10
19.275934375000002
20
44.31784375
30
0
0
VERTEX
8
0
10
19.301859375
20
44.3190875
30
0
42
0.14273568292938665
0
VERTEX
8
0
10
19.560903125
20
44.424768750000005
30
0
0
VERTEX
8
0
10
19.602659375
20
44.4619
30
0
42
0.0006684388420158373
0
VERTEX
8
0
10
19.603606250000002
20
44.462843750000005
30
0
0
VERTEX
8
0
10
27.442978125
20
52.302215625
30
0
0
VERTEX
8
0
10
27.453909375000002
20
52.31444375
30
0
0
VERTEX
8
0
10
27.46540625
20
52.326165625
30
0
42
0.047755101765640996
0
VERTEX
8
0
10
27.52055
20
52.403809375
30
0
0
VERTEX
8
0
10
27.529140625
20
52.417759375
30
0
0
VERTEX
8
0
10
27.5340625
20
52.428203125
30
0
0
VERTEX
8
0
10
27.539659375000003
20
52.4383125
30
0
42
0.01566296308751939
0
VERTEX
8
0
10
27.552953125000002
20
52.468309375000004
30
0
0
VERTEX
8
0
10
27.556350000000002
20
52.478453125
30
0
0
VERTEX
8
0
10
27.5611125
20
52.489909375
30
0
0
VERTEX
8
0
10
27.567115625
20
52.510615625
30
0
0
VERTEX
8
0
10
27.5723875
20
52.526359375000006
30
0
0
VERTEX
8
0
10
27.57564375
20
52.5385125
30
0
0
VERTEX
8
0
10
27.861646875
20
53.033884375
30
0
0
VERTEX
8
0
10
28.266112500000002
20
53.43835
30
0
0
VERTEX
8
0
10
28.761484375000002
20
53.724353125
30
0
0
VERTEX
8
0
10
29.31399375
20
53.872396875
30
0
0
VERTEX
8
0
10
40.586003125000005
20
53.872396875
30
0
0
VERTEX
8
0
10
41.138512500000004
20
53.724353125
30
0
0
VERTEX
8
0
10
41.633884375
20
53.43835
30
0
0
VERTEX
8
0
10
44.63835
20
50.433884375000005
30
0
0
VERTEX
8
0
10
44.924353125
20
49.9385125
30
0
0
VERTEX
8
0
10
45.072396875
20
49.386003125
30
0
0
VERTEX
8
0
10
45.072396875
20
37.70694375
30
0
0
VERTEX
8
0
10
45.07384375
20
37.6810625
30
0
0
VERTEX
8
0
10
45.0750875
20
37.6551375
30
0
42
0.14273568292938665
0
VERTEX
8
0
10
45.180768750000006
20
37.39609375
30
0
0
VERTEX
8
0
10
45.2179
20
37.3543375
30
0
42
0.0006684388420158373
0
VERTEX
8
0
10
45.218843750000005
20
37.353390625
30
0
0
VERTEX
8
0
10
45.853390625
20
36.718843750000005
30
0
0
VERTEX
8
0
10
45.872709375
20
36.701571875
30
0
0
VERTEX
8
0
10
45.891925
20
36.684112500000005
30
0
42
0.1427356176412374
0
VERTEX
8
0
10
46.149825
20
36.57566875
30
0
0
VERTEX
8
0
10
46.20560625
20
36.5724
30
0
42
0.0006687526842779185
0
VERTEX
8
0
10
46.20694375
20
36.572396875
30
0
0
VERTEX
8
0
10
49.686003125
20
36.572396875
30
0
0
VERTEX
8
0
10
50.025375000000004
20
36.4814625
30
0
0
VERTEX
8
0
10
50.034203125000005
20
36.47961875
30
0
0
VERTEX
8
0
10
50.042909375
20
36.4771
30
0
42
0.4457535083686016
0
VERTEX
8
0
10
50.6512375
20
36.904971875
30
0
0
VERTEX
8
0
10
50.652190625
20
36.921406250000004
30
0
0
VERTEX
8
0
10
50.6543125
20
36.942678125
30
0
0
VERTEX
8
0
10
50.65415625
20
36.9553
30
0
0
VERTEX
8
0
10
50.65478125
20
36.9660875
30
0
0
VERTEX
8
0
10
50.583975
20
58.2792625
30
0
0
VERTEX
8
0
10
50.58245
20
58.304978125000005
30
0
0
VERTEX
8
0
10
50.581146875
20
58.330737500000005
30
0
42
0.351061484056702
0
VERTEX
8
0
10
50.140775000000005
20
58.7743625
30
0
0
VERTEX
8
0
10
50.084990625
20
58.7776
30
0
0
VERTEX
8
0
10
50.084453125
20
58.777571875
30
0
0
VERTEX
8
0
10
50.083978125
20
58.7776
30
0
0
VERTEX
8
0
10
1.7287937500000001
20
58.7776
30
0
0
VERTEX
8
0
10
1.70179375
20
58.776090625
30
0
0
VERTEX
8
0
10
1.6740062500000001
20
58.774590625
30
0
42
0.3491976674788065
0
VERTEX
8
0
10
1.232221875
20
58.336046875
30
0
0
VERTEX
8
0
10
1.2288000000000001
20
58.280271875000004
30
0
42
0.002167197007865582
0
VERTEX
8
0
10
1.228796875
20
58.275937500000005
30
0
0
VERTEX
8
0
10
1.25749375
20
49.63744375
30
0
0
VERTEX
8
0
10
1.25906875
20
49.610884375000005
30
0
0
VERTEX
8
0
10
1.2604656250000001
20
49.584640625000006
30
0
42
0.5894603712529983
0
VERTEX
8
0
10
2.067546875
20
49.24685
30
0
0
VERTEX
8
0
10
2.10938125
20
49.283896875
30
0
0
VERTEX
8
0
10
2.1102125000000003
20
49.28481875
30
0
0
VERTEX
8
0
10
2.11104375
20
49.285553125
30
0
0
VERTEX
8
0
10
3.0051375
20
50.179646875
30
0
0
VERTEX
8
0
10
4.067959375
20
50.793265625000004
30
0
0
VERTEX
8
0
10
5.253378125
20
51.110896875
30
0
0
VERTEX
8
0
10
6.4806187500000005
20
51.110896875
30
0
0
VERTEX
8
0
10
7.666037500000001
20
50.793265625000004
30
0
0
VERTEX
8
0
10
8.728859375
20
50.179646875
30
0
0
VERTEX
8
0
10
9.5974375
20
49.311068750000004
30
0
0
VERTEX
8
0
10
9.599450000000001
20
49.30799375
30
0
0
VERTEX
8
0
10
9.603731250000001
20
49.300215625
30
0
42
0.7063868292457846
0
VERTEX
8
0
10
10.523853125
20
49.504321875
30
0
0
VERTEX
8
0
10
10.524868750000001
20
49.5208875
30
0
0
VERTEX
8
0
10
10.527065625
20
49.542321875
30
0
0
VERTEX
8
0
10
10.526946875
20
49.554746875
30
0
0
VERTEX
8
0
10
10.5276
20
49.565421875000006
30
0
0
VERTEX
8
0
10
10.5276
20
52.186003125
30
0
0
VERTEX
8
0
10
10.67564375
20
52.738512500000006
30
0
0
VERTEX
8
0
10
10.961646875000001
20
53.233884375
30
0
0
VERTEX
8
0
10
11.3771125
20
53.649350000000005
30
0
0
VERTEX
8
0
10
11.872484375
20
53.935353125000006
30
0
0
VERTEX
8
0
10
12.42499375
20
54.083396875000005
30
0
0
VERTEX
8
0
10
16.461640625
20
54.083396875000005
30
0
0
VERTEX
8
0
10
16.4875125
20
54.084843750000005
30
0
0
VERTEX
8
0
10
16.513450000000002
20
54.086087500000005
30
0
42
0.14273409717990196
0
VERTEX
8
0
10
16.772490625
20
54.19176875
30
0
0
VERTEX
8
0
10
16.814246875000002
20
54.2289
30
0
42
0.0006684388420158373
0
VERTEX
8
0
10
16.815193750000002
20
54.22984375
30
0
0
VERTEX
8
0
10
17.823743750000002
20
55.238396875
30
0
0
VERTEX
8
0
10
20.580253125000002
20
55.238396875
30
0
0
VERTEX
8
0
10
22.529396875
20
53.289253125
30
0
0
VERTEX
8
0
10
22.529396875
20
50.53274375
30
0
0
VERTEX
8
0
10
20.580253125000002
20
48.583600000000004
30
0
0
VERTEX
8
0
10
17.823743750000002
20
48.583600000000004
30
0
0
VERTEX
8
0
10
16.815193750000002
20
49.592153125
30
0
0
VERTEX
8
0
10
16.795875000000002
20
49.609425
30
0
0
VERTEX
8
0
10
16.776659375
20
49.626884375
30
0
42
0.14273385160844815
0
VERTEX
8
0
10
16.5187625
20
49.735325
30
0
0
VERTEX
8
0
10
16.462978125
20
49.738596875
30
0
42
0.0006687526842779185
0
VERTEX
8
0
10
16.461640625
20
49.738600000000005
30
0
0
VERTEX
8
0
10
15.372396875000002
20
49.738600000000005
30
0
0
VERTEX
8
0
10
15.345875000000001
20
49.737115625
30
0
0
VERTEX
8
0
10
15.319259375000001
20
49.735768750000005
30
0
42
0.3501289138148639
0
VERTEX
8
0
10
14.875825
20
49.297046875
30
0
0
VERTEX
8
0
10
14.872403125
20
49.241271875
30
0
42
0.0013359422777441622
0
VERTEX
8
0
10
14.872396875000002
20
49.238600000000005
30
0
0
VERTEX
8
0
10
14.872396875000002
20
38.21399375
30
0
0
VERTEX
8
0
10
14.724353125
20
37.661484375
30
0
0
VERTEX
8
0
10
14.438350000000002
20
37.166112500000004
30
0
0
VERTEX
8
0
10
7.07684375
20
29.804606250000003
30
0
0
VERTEX
8
0
10
7.0595718750000005
20
29.785287500000003
30
0
0
VERTEX
8
0
10
7.0421125
20
29.766071875
30
0
42
0.1427356176412374
0
VERTEX
8
0
10
6.933668750000001
20
29.508171875000002
30
0
0
VERTEX
8
0
10
6.930400000000001
20
29.452390625000003
30
0
42
0.0006687526842779185
0
VERTEX
8
0
10
6.9303968750000005
20
29.451053125
30
0
0
VERTEX
8
0
10
6.9303968750000005
20
25.966115625
30
0
0
VERTEX
8
0
10
6.93135
20
25.949075
30
0
0
VERTEX
8
0
10
6.9315625
20
25.931984375000003
30
0
42
0.2870615688925892
0
VERTEX
8
0
10
7.242940625
20
25.502584375
30
0
0
VERTEX
8
0
10
7.252528125
20
25.499375
30
0
0
VERTEX
8
0
10
7.263278125
20
25.494871875
30
0
0
VERTEX
8
0
10
7.2849031250000005
20
25.4885375
30
0
0
VERTEX
8
0
10
7.300990625000001
20
25.483153125
30
0
0
VERTEX
8
0
10
7.542478125000001
20
25.418446875
30
0
0
VERTEX
8
0
10
8.234615625
20
25.018840625000003
30
0
0
VERTEX
8
0
10
8.799740625
20
24.453715625
30
0
0
VERTEX
8
0
10
9.199346875
20
23.761581250000003
30
0
0
VERTEX
8
0
10
9.406196875000001
20
22.98960625
30
0
0
VERTEX
8
0
10
9.406196875000001
20
22.190390625000003
30
0
0
VERTEX
8
0
10
9.199346875
20
21.418415625
30
0
0
VERTEX
8
0
10
8.799740625
20
20.72628125
30
0
0
VERTEX
8
0
10
8.234615625
20
20.16115625
30
0
0
VERTEX
8
0
10
7.542481250000001
20
19.76155
30
0
0
VERTEX
8
0
10
6.77050625
20
19.5547
30
0
0
VERTEX
8
0
10
5.002040625
20
19.5547
30
0
0
VERTEX
8
0
10
4.976159375
20
19.553253125
30
0
0
VERTEX
8
0
10
4.950234375
20
19.552009375
30
0
42
0.11431649255875836
0
VERTEX
8
0
10
4.736834375
20
19.47856875
30
0
0
VERTEX
8
0
10
4.715734375
20
19.463665625
30
0
0
VERTEX
8
0
10
4.694340625000001
20
19.448809375
30
0
42
0.0018971333357429947
0
VERTEX
8
0
10
4.691190625
20
19.446328125
30
0
0
VERTEX
8
0
10
4.649434375
20
19.409196875
30
0
42
0.0006452841132892591
0
VERTEX
8
0
10
4.6484875
20
19.408253125
30
0
0
VERTEX
8
0
10
4.581684375
20
19.341450000000002
30
0
42
0.6247535830590865
0
VERTEX
8
0
10
4.8741375
20
18.49164375
30
0
0
VERTEX
8
0
10
4.8747625
20
18.49160625
30
0
0
VERTEX
8
0
10
4.8754625
20
18.49148125
30
0
0
VERTEX
8
0
10
4.9312281250000005
20
18.4879125
30
0
42
0.002004709864245277
0
VERTEX
8
0
10
4.9352375
20
18.487896875
30
0
0
VERTEX
8
0
10
8.87870625
20
18.487896875
30
0
0
VERTEX
8
0
10
9.65068125
20
18.281046875
30
0
0
VERTEX
8
0
10
10.342815625
20
17.881440625
30
0
0
VERTEX
8
0
10
10.907940625
20
17.316315625
30
0
0
VERTEX
8
0
10
11.307546875
20
16.62418125
30
0
0
VERTEX
8
0
10
11.387034375
20
16.327521875000002
30
0
0
VERTEX
8
0
10
11.389809375
20
16.319084375
30
0
0
VERTEX
8
0
10
11.39193125
20
16.3104625
30
0
42
0.706384161164969
0
VERTEX
8
0
10
12.333525
20
16.26946875
30
0
0
VERTEX
8
0
10
12.3387875
20
16.2851875
30
0
0
VERTEX
8
0
10
12.346468750000001
20
16.30535625
30
0
0
VERTEX
8
0
10
12.349565625
20
16.317384375
30
0
0
VERTEX
8
0
10
12.352959375000001
20
16.32751875
30
0
0
VERTEX
8
0
10
12.432450000000001
20
16.62418125
30
0
0
VERTEX
8
0
10
12.83205625
20
17.316315625
30
0
0
VERTEX
8
0
10
13.397181250000001
20
17.881440625
30
0
0
VERTEX
8
0
10
14.089315625000001
20
18.281046875
30
0
0
VERTEX
8
0
10
14.861290625
20
18.487896875
30
0
0
VERTEX
8
0
10
18.88630625
20
18.487896875
30
0
0
VERTEX
8
0
10
19.65828125
20
18.281046875
30
0
0
VERTEX
8
0
10
20.350415625
20
17.881440625
30
0
0
VERTEX
8
0
10
20.4604125
20
17.77144375
30
0
42
0.1693185362340056
0
VERTEX
8
0
10
20.756846875
20
17.62826875
30
0
0
VERTEX
8
0
10
20.812628125
20
17.625
30
0
42
0.0006687526842779185
0
VERTEX
8
0
10
20.813965625
20
17.624996875
30
0
0
VERTEX
8
0
10
23.89433125
20
17.624996875
30
0
0
VERTEX
8
0
10
23.9202125
20
17.62644375
30
0
0
VERTEX
8
0
10
23.946137500000003
20
17.6276875
30
0
42
0.14273568292938665
0
VERTEX
8
0
10
24.205181250000003
20
17.73336875
30
0
0
VERTEX
8
0
10
24.2469375
20
17.770500000000002
30
0
42
0.0006684388420158373
0
VERTEX
8
0
10
24.247884375
20
17.77144375
30
0
0
VERTEX
8
0
10
24.785090625000002
20
18.30865
30
0
0
VERTEX
8
0
10
25.62250625
20
18.79213125
30
0
0
VERTEX
8
0
10
26.556515625000003
20
19.042396875
30
0
0
VERTEX
8
0
10
27.52348125
20
19.042396875
30
0
0
VERTEX
8
0
10
28.457490625000002
20
18.79213125
30
0
0
VERTEX
8
0
10
29.29490625
20
18.30865
30
0
0
VERTEX
8
0
10
29.978650000000002
20
17.624906250000002
30
0
0
VERTEX
8
0
10
30.462131250000002
20
16.787490625
30
0
0
VERTEX
8
0
10
30.712396875000003
20
15.853481250000002
30
0
0
VERTEX
8
0
10
30.712396875000003
20
14.886515625000001
30
0
0
VERTEX
8
0
10
30.462131250000002
20
13.95250625
30
0
0
VERTEX
8
0
10
29.978650000000002
20
13.115090625
30
0
0
VERTEX
8
0
10
29.29490625
20
12.431346875000001
30
0
0
VERTEX
8
0
10
29.07261875
20
12.303009375
30
0
0
VERTEX
8
0
10
29.057790625000003
20
12.29330625
30
0
0
VERTEX
8
0
10
29.042534375000002
20
12.2841875
30
0
42
0.5145585724497377
0
VERTEX
8
0
10
29.02158125
20
11.470778125
30
0
0
VERTEX
8
0
10
29.029484375000003
20
11.465546875000001
30
0
0
VERTEX
8
0
10
29.038125
20
11.458821875
30
0
0
VERTEX
8
0
10
29.058159375000002
20
11.446559375000001
30
0
0
VERTEX
8
0
10
29.072621875000003
20
11.43698125
30
0
0
VERTEX
8
0
10
29.294909375000003
20
11.308646875
30
0
0
VERTEX
8
0
10
29.978650000000002
20
10.62490625
30
0
0
VERTEX
8
0
10
30.462131250000002
20
9.787490625
30
0
0
VERTEX
8
0
10
30.712396875000003
20
8.85348125
30
0
0
VERTEX
8
0
10
30.712396875000003
20
7.886515625
30
0
0
VERTEX
8
0
10
30.462131250000002
20
6.952506250000001
30
0
0
VERTEX
8
0
10
29.978650000000002
20
6.115090625000001
30
0
0
VERTEX
8
0
10
29.29490625
20
5.431346875
30
0
0
VERTEX
8
0
10
28.457496875
20
4.9478687500000005
30
0
0
VERTEX
8
0
10
28.358565625
20
4.9213625
30
0
42
0.8242023296359285
0
VERTEX
8
0
10
28.42686875
20
3.94214375
30
0
0
VERTEX
8
0
10
28.435759375
20
3.9416
30
0
0
VERTEX
8
0
10
28.445840625000002
20
3.940175
30
0
0
VERTEX
8
0
10
28.470359375
20
3.9394781250000004
30
0
0
VERTEX
8
0
10
28.48796875
20
3.938396875
30
0
0
VERTEX
8
0
10
34.2776
20
3.938396875
30
0
0
VERTEX
8
0
10
34.304121875
20
3.93988125
30
0
0
VERTEX
8
0
10
34.330737500000005
20
3.9412281250000003
30
0
42
0.3501289138148639
0
VERTEX
8
0
10
34.774171875
20
4.37995
30
0
0
VERTEX
8
0
10
34.77759375
20
4.435725000000001
30
0
42
0.0013359422777441622
0
VERTEX
8
0
10
34.7776
20
4.4383968750000005
30
0
0
VERTEX
8
0
10
34.7776
20
7.171062500000001
30
0
0
VERTEX
8
0
10
34.777178125
20
7.178603125
30
0
0
VERTEX
8
0
10
34.777371875
20
7.186134375
30
0
42
0.22744045732389714
0
VERTEX
8
0
10
34.578640625
20
7.570281250000001
30
0
0
VERTEX
8
0
10
34.564181250000004
20
7.5798531250000005
30
0
0
VERTEX
8
0
10
34.54506875
20
7.593509375
30
0
0
VERTEX
8
0
10
34.5355125
20
7.598834375
30
0
0
VERTEX
8
0
10
34.5276
20
7.604075000000001
30
0
0
VERTEX
8
0
10
34.462609375
20
7.641596875
30
0
0
VERTEX
8
0
10
34.011596875
20
8.092609375
30
0
0
VERTEX
8
0
10
33.69268125
20
8.644987500000001
30
0
0
VERTEX
8
0
10
33.5276
20
9.26108125
30
0
0
VERTEX
8
0
10
33.5276
20
9.898915625
30
0
0
VERTEX
8
0
10
33.69268125
20
10.515009375
30
0
0
VERTEX
8
0
10
34.011596875
20
11.0673875
30
0
0
VERTEX
8
0
10
34.462609375
20
11.5184
30
0
0
VERTEX
8
0
10
35.014987500000004
20
11.837315625
30
0
0
VERTEX
8
0
10
35.63108125
20
12.002396875
30
0
0
VERTEX
8
0
10
37.89305625
20
12.002396875
30
0
0
VERTEX
8
0
10
37.9189375
20
12.00384375
30
0
0
VERTEX
8
0
10
37.9448625
20
12.0050875
30
0
42
0.14273568292938665
0
VERTEX
8
0
10
38.20390625
20
12.11076875
30
0
0
VERTEX
8
0
10
38.2456625
20
12.1479
30
0
42
0.0006684388420158373
0
VERTEX
8
0
10
38.246609375
20
12.148843750000001
30
0
0
VERTEX
8
0
10
39.181153125
20
13.0833875
30
0
0
VERTEX
8
0
10
39.198425
20
13.10270625
30
0
0
VERTEX
8
0
10
39.215884375
20
13.121921875
30
0
42
0.1427356176412374
0
VERTEX
8
0
10
39.324328125
20
13.379821875000001
30
0
0
VERTEX
8
0
10
39.327596875000005
20
13.435603125
30
0
42
0.0006687526842779185
0
VERTEX
8
0
10
39.327600000000004
20
13.436940625
30
0
0
VERTEX
8
0
10
39.327600000000004
20
13.8989125
30
0
0
VERTEX
8
0
10
39.372884375000005
20
14.067909375000001
30
0
0
VERTEX
8
0
10
39.378515625
20
14.094875
30
0
0
VERTEX
8
0
10
39.384109375
20
14.121296875
30
0
42
0.5874421182047992
0
VERTEX
8
0
10
38.69470625
20
14.6576375
30
0
0
VERTEX
8
0
10
38.69415
20
14.657359375
30
0
0
VERTEX
8
0
10
38.693484375000004
20
14.65711875
30
0
0
VERTEX
8
0
10
38.643406250000005
20
14.632328125
30
0
0
VERTEX
8
0
10
38.64161875
20
14.631178125
30
0
0
VERTEX
8
0
10
38.63991875
20
14.630331250000001
30
0
0
VERTEX
8
0
10
38.505821875
20
14.552909375
30
0
0
VERTEX
8
0
10
38.353953125000004
20
14.490003125000001
30
0
0
VERTEX
8
0
10
38.19516875
20
14.44745625
30
0
0
VERTEX
8
0
10
38.032190625
20
14.426
30
0
0
VERTEX
8
0
10
37.4500125
20
14.426
30
0
0
VERTEX
8
0
10
37.4500125
20
14.680000000000001
30
0
0
VERTEX
8
0
10
37.9936625
20
14.680000000000001
30
0
0
VERTEX
8
0
10
38.08065
20
14.687609375000001
30
0
42
0.2216944550119765
0
VERTEX
8
0
10
38.794193750000005
20
15.1421875
30
0
0
VERTEX
8
0
10
38.816015625
20
15.17998125
30
0
0
VERTEX
8
0
10
39.590365625000004
20
15.17998125
30
0
0
VERTEX
8
0
10
39.590503125000005
20
15.179940625
30
0
42
0.22744049126829305
0
VERTEX
8
0
10
40.012746875000005
20
15.27360625
30
0
0
VERTEX
8
0
10
40.054703125
20
15.310515625
30
0
42
0.00200644761398192
0
VERTEX
8
0
10
40.057553125000005
20
15.313340625
30
0
0
VERTEX
8
0
10
40.262609375000004
20
15.518400000000002
30
0
0
VERTEX
8
0
10
40.8149875
20
15.837315625
30
0
0
VERTEX
8
0
10
41.431081250000005
20
16.002396875000002
30
0
0
VERTEX
8
0
10
42.068915625
20
16.002396875000002
30
0
0
VERTEX
8
0
10
42.685009375
20
15.837315625
30
0
0
VERTEX
8
0
10
43.237387500000004
20
15.518400000000002
30
0
0
VERTEX
8
0
10
43.6884
20
15.0673875
30
0
0
VERTEX
8
0
10
44.007315625000004
20
14.515009375
30
0
0
VERTEX
8
0
10
44.172396875000004
20
13.898915625
30
0
0
VERTEX
8
0
10
44.172396875000004
20
11.26108125
30
0
0
VERTEX
8
0
10
44.007315625000004
20
10.644987500000001
30
0
0
VERTEX
8
0
10
43.6884
20
10.092609375
30
0
0
VERTEX
8
0
10
43.237387500000004
20
9.641596875000001
30
0
0
VERTEX
8
0
10
42.685009375
20
9.32268125
30
0
0
VERTEX
8
0
10
42.068915625
20
9.1576
30
0
0
VERTEX
8
0
10
41.606940625
20
9.1576
30
0
0
VERTEX
8
0
10
41.58106875
20
9.156153125000001
30
0
0
VERTEX
8
0
10
41.55513125
20
9.154909375
30
0
42
0.14273409717990196
0
VERTEX
8
0
10
41.296090625000005
20
9.049228125
30
0
0
VERTEX
8
0
10
41.254334375
20
9.012096875000001
30
0
42
0.0006684388420158373
0
VERTEX
8
0
10
41.2533875
20
9.011153125
30
0
0
VERTEX
8
0
10
40.083884375000004
20
7.841646875
30
0
0
VERTEX
8
0
10
39.58851875
20
7.555646875000001
30
0
0
VERTEX
8
0
10
39.492993750000004
20
7.530053125
30
0
42
0.3056433995364673
0
VERTEX
8
0
10
39.126143750000004
20
7.1081875000000005
30
0
0
VERTEX
8
0
10
39.125525
20
7.098121875
30
0
0
VERTEX
8
0
10
39.12395625
20
7.086553125
30
0
0
VERTEX
8
0
10
39.1234375
20
7.06403125
30
0
0
VERTEX
8
0
10
39.122396875
20
7.0470875
30
0
0
VERTEX
8
0
10
39.122396875
20
2.53843125
30
0
0
VERTEX
8
0
10
39.12278125
20
2.5315781250000002
30
0
0
VERTEX
8
0
10
39.122584375
20
2.524696875
30
0
42
0.027962751970436323
0
VERTEX
8
0
10
39.127240625
20
2.469009375
30
0
0
VERTEX
8
0
10
39.130746875
20
2.451765625
30
0
0
VERTEX
8
0
10
39.134846875
20
2.4275437500000003
30
0
0
VERTEX
8
0
10
39.137665625000004
20
2.417728125
30
0
0
VERTEX
8
0
10
39.139434375
20
2.409021875
30
0
0
VERTEX
8
0
10
39.172396875000004
20
2.286003125
30
0
0
VERTEX
8
0
10
39.172396875000004
20
1.922396875
30
0
0
VERTEX
8
0
10
39.17388125
20
1.8958750000000002
30
0
0
VERTEX
8
0
10
39.175228125000004
20
1.8692593750000002
30
0
42
0.3501289138148639
0
VERTEX
8
0
10
39.61395
20
1.4258250000000001
30
0
0
VERTEX
8
0
10
39.669725
20
1.422403125
30
0
42
0.0013359422777441622
0
VERTEX
8
0
10
39.672396875000004
20
1.422396875
30
0
0
VERTEX
8
0
10
50.271203125
20
1.422396875
30
0
0
SEQEND
0
POLYLINE
66
1
8
16_copper
10
0.0
20
0.0
30
0.0
70
1
0
VERTEX
8
0
10
34.914984375
20
43.15769375
30
0
0
VERTEX
8
0
10
34.5979625
20
43.28900625
30
0
0
VERTEX
8
0
10
34.295325
20
43.450771875
30
0
0
VERTEX
8
0
10
34.010003125000004
20
43.641415625
30
0
0
VERTEX
8
0
10
33.744759375
20
43.859096875
30
0
0
VERTEX
8
0
10
33.502096875
20
44.101759375
30
0
0
VERTEX
8
0
10
33.284415625
20
44.367003125000004
30
0
0
VERTEX
8
0
10
33.093771875
20
44.652325000000005
30
0
0
VERTEX
8
0
10
32.93200625
20
44.9549625
30
0
0
VERTEX
8
0
10
32.80069375
20
45.271984375
30
0
0
VERTEX
8
0
10
32.74669375
20
45.45
30
0
0
VERTEX
8
0
10
35.093
20
45.45
30
0
0
VERTEX
8
0
10
35.093
20
43.1536625
30
0
0
VERTEX
8
0
10
35.0546625
20
43.115325
30
0
0
SEQEND
0
POLYLINE
66
1
8
16_copper
10
0.0
20
0.0
30
0.0
70
1
0
VERTEX
8
0
10
37.092993750000005
20
45.45
30
0
0
VERTEX
8
0
10
39.439303125
20
45.45
30
0
0
VERTEX
8
0
10
39.385303125
20
45.271984375
30
0
0
VERTEX
8
0
10
39.253990625
20
44.9549625
30
0
0
VERTEX
8
0
10
39.092225
20
44.652325000000005
30
0
0
VERTEX
8
0
10
38.90158125
20
44.367003125000004
30
0
0
VERTEX
8
0
10
38.6839
20
44.101759375
30
0
0
VERTEX
8
0
10
38.4412375
20
43.859096875
30
0
0
VERTEX
8
0
10
38.17599375
20
43.641415625
30
0
0
VERTEX
8
0
10
37.890671875
20
43.450771875
30
0
0
VERTEX
8
0
10
37.588034375
20
43.28900625
30
0
0
VERTEX
8
0
10
37.271012500000005
20
43.15769375
30
0
0
VERTEX
8
0
10
37.092993750000005
20
43.103690625
30
0
0
SEQEND
0
POLYLINE
66
1
8
16_copper
10
0.0
20
0.0
30
0.0
70
1
0
VERTEX
8
0
10
16.969490625000002
20
19.5547
30
0
0
VERTEX
8
0
10
16.197515625
20
19.76155
30
0
0
VERTEX
8
0
10
15.505381250000001
20
20.16115625
30
0
0
VERTEX
8
0
10
14.940256250000001
20
20.72628125
30
0
0
VERTEX
8
0
10
14.540650000000001
20
21.418415625
30
0
0
VERTEX
8
0
10
14.3338
20
22.190390625000003
30
0
0
VERTEX
8
0
10
14.3338
20
22.98960625
30
0
0
VERTEX
8
0
10
14.540650000000001
20
23.761581250000003
30
0
0
VERTEX
8
0
10
14.940256250000001
20
24.453715625
30
0
0
VERTEX
8
0
10
15.505381250000001
20
25.018840625000003
30
0
0
VERTEX
8
0
10
16.19751875
20
25.418446875
30
0
0
VERTEX
8
0
10
16.439006250000002
20
25.483153125
30
0
0
VERTEX
8
0
10
16.455215625
20
25.488484375000002
30
0
0
VERTEX
8
0
10
16.471671875000002
20
25.493112500000002
30
0
42
0.2870626445690269
0
VERTEX
8
0
10
16.805853125000002
20
25.905015625
30
0
0
VERTEX
8
0
10
16.806471875
20
25.915087500000002
30
0
0
VERTEX
8
0
10
16.808040625
20
25.926653125
30
0
0
VERTEX
8
0
10
16.808559375
20
25.949168750000002
30
0
0
VERTEX
8
0
10
16.8096
20
25.966115625
30
0
0
VERTEX
8
0
10
16.8096
20
27.868003125
30
0
0
VERTEX
8
0
10
16.957643750000003
20
28.4205125
30
0
0
VERTEX
8
0
10
17.243646875
20
28.915884375
30
0
0
VERTEX
8
0
10
17.8661125
20
29.53835
30
0
0
VERTEX
8
0
10
18.361484375
20
29.824353125000002
30
0
0
VERTEX
8
0
10
18.91399375
20
29.972396875
30
0
0
VERTEX
8
0
10
22.0536
20
29.972396875
30
0
0
VERTEX
8
0
10
22.080121875
20
29.97388125
30
0
0
VERTEX
8
0
10
22.1067375
20
29.975228125
30
0
42
0.3501289138148639
0
VERTEX
8
0
10
22.550171875
20
30.41395
30
0
0
VERTEX
8
0
10
22.55359375
20
30.469725
30
0
42
0.0013359422777441622
0
VERTEX
8
0
10
22.5536
20
30.472396875
30
0
0
VERTEX
8
0
10
22.5536
20
30.57758125
30
0
0
VERTEX
8
0
10
22.7024625
20
31.133143750000002
30
0
0
VERTEX
8
0
10
22.990040625000002
20
31.631243750000003
30
0
0
VERTEX
8
0
10
23.310759375
20
31.9519625
30
0
0
VERTEX
8
0
10
23.321721875
20
31.964225000000003
30
0
0
VERTEX
8
0
10
23.333190625
20
31.97591875
30
0
42
0.08406165225822981
0
VERTEX
8
0
10
23.4207375
20
32.118065625
30
0
0
VERTEX
8
0
10
23.424131250000002
20
32.1282
30
0
0
VERTEX
8
0
10
23.42889375
20
32.13965625
30
0
0
VERTEX
8
0
10
23.434900000000003
20
32.160365625000004
30
0
0
VERTEX
8
0
10
23.440171875
20
32.176115625
30
0
0
VERTEX
8
0
10
23.475646875000002
20
32.308518750000005
30
0
0
VERTEX
8
0
10
23.761646875
20
32.803884375
30
0
0
VERTEX
8
0
10
27.226115625000002
20
36.268353125000004
30
0
0
VERTEX
8
0
10
27.46891875
20
36.408534375
30
0
0
VERTEX
8
0
10
27.47465
20
36.412284375
30
0
0
VERTEX
8
0
10
27.480725
20
36.415565625
30
0
42
0.0279616874811014
0
VERTEX
8
0
10
27.526621875
20
36.447440625
30
0
0
VERTEX
8
0
10
27.539803125000002
20
36.4591
30
0
0
VERTEX
8
0
10
27.558728125000002
20
36.474759375000005
30
0
0
VERTEX
8
0
10
27.565818750000002
20
36.482109375
30
0
0
VERTEX
8
0
10
27.572478125
20
36.487996875
30
0
0
VERTEX
8
0
10
27.697278125
20
36.612796875
30
0
0
VERTEX
8
0
10
27.873775000000002
20
36.612796875
30
0
0
VERTEX
8
0
10
27.880628125
20
36.613181250000004
30
0
0
VERTEX
8
0
10
27.887509375
20
36.612984375
30
0
42
0.027961203390449593
0
VERTEX
8
0
10
27.943193750000002
20
36.617640625
30
0
0
VERTEX
8
0
10
27.960428125
20
36.62114375
30
0
0
VERTEX
8
0
10
27.984662500000002
20
36.625246875
30
0
0
VERTEX
8
0
10
27.99448125
20
36.628065625000005
30
0
0
VERTEX
8
0
10
28.003184375
20
36.629834375
30
0
0
VERTEX
8
0
10
28.273993750000002
20
36.702396875000005
30
0
0
VERTEX
8
0
10
28.846003125000003
20
36.702396875000005
30
0
0
VERTEX
8
0
10
29.1168125
20
36.629834375
30
0
0
VERTEX
8
0
10
29.12355
20
36.628428125
30
0
0
VERTEX
8
0
10
29.130128125000002
20
36.6264625
30
0
42
0.027962403053317732
0
VERTEX
8
0
10
29.185121875
20
36.616543750000005
30
0
0
VERTEX
8
0
10
29.202715625
20
36.615465625
30
0
0
VERTEX
8
0
10
29.227146875000003
20
36.613159375
30
0
0
VERTEX
8
0
10
29.237350000000003
20
36.613340625
30
0
0
VERTEX
8
0
10
29.246221875
20
36.612796875
30
0
0
VERTEX
8
0
10
29.42271875
20
36.612796875
30
0
0
VERTEX
8
0
10
29.547518750000002
20
36.487996875
30
0
0
VERTEX
8
0
10
29.552637500000003
20
36.48341875
30
0
0
VERTEX
8
0
10
29.557368750000002
20
36.478412500000005
30
0
42
0.02796118655573211
0
VERTEX
8
0
10
29.600034375
20
36.442328125
30
0
0
VERTEX
8
0
10
29.614784375000003
20
36.4325625
30
0
0
VERTEX
8
0
10
29.634734375
20
36.418390625
30
0
0
VERTEX
8
0
10
29.643653125
20
36.413450000000005
30
0
0
VERTEX
8
0
10
29.651078125
20
36.408534375
30
0
0
VERTEX
8
0
10
29.89388125
20
36.268353125000004
30
0
0
VERTEX
8
0
10
32.25
20
33.912234375000004
30
0
0
VERTEX
8
0
10
32.25
20
30.3877625
30
0
0
VERTEX
8
0
10
31.863881250000002
20
30.001643750000003
30
0
0
VERTEX
8
0
10
31.621078125
20
29.861462500000002
30
0
0
VERTEX
8
0
10
31.615346875
20
29.8577125
30
0
0
VERTEX
8
0
10
31.609271875
20
29.85443125
30
0
42
0.0279616874811014
0
VERTEX
8
0
10
31.563375
20
29.82255625
30
0
0
VERTEX
8
0
10
31.550193750000002
20
29.810896875
30
0
0
VERTEX
8
0
10
31.531268750000002
20
29.795237500000002
30
0
0
VERTEX
8
0
10
31.524178125000002
20
29.7878875
30
0
0
VERTEX
8
0
10
31.51751875
20
29.782
30
0
0
VERTEX
8
0
10
31.39271875
20
29.657200000000003
30
0
0
VERTEX
8
0
10
31.216221875000002
20
29.657200000000003
30
0
0
VERTEX
8
0
10
31.209368750000003
20
29.656815625
30
0
0
VERTEX
8
0
10
31.2024875
20
29.6570125
30
0
42
0.027961203390449593
0
VERTEX
8
0
10
31.146803125
20
29.65235625
30
0
0
VERTEX
8
0
10
31.12956875
20
29.648853125000002
30
0
0
VERTEX
8
0
10
31.105334375
20
29.644750000000002
30
0
0
VERTEX
8
0
10
31.095515625
20
29.641931250000003
30
0
0
VERTEX
8
0
10
31.0868125
20
29.640162500000002
30
0
0
VERTEX
8
0
10
30.816003125
20
29.567600000000002
30
0
0
VERTEX
8
0
10
28.655921875
20
29.567600000000002
30
0
0
VERTEX
8
0
10
28.648384375000003
20
29.567178125
30
0
0
VERTEX
8
0
10
28.640871875000002
20
29.567371875000003
30
0
42
0.14069047106772722
0
VERTEX
8
0
10
28.378075000000003
20
29.48329375
30
0
0
VERTEX
8
0
10
28.361746875
20
29.471006250000002
30
0
0
VERTEX
8
0
10
28.345071875000002
20
29.459228125000003
30
0
42
0.06118911770922271
0
VERTEX
8
0
10
28.256715625000002
20
29.36865625
30
0
0
VERTEX
8
0
10
28.247146875000002
20
29.35420625
30
0
0
VERTEX
8
0
10
28.233475000000002
20
29.33506875
30
0
0
VERTEX
8
0
10
28.228153125000002
20
29.32551875
30
0
0
VERTEX
8
0
10
28.22291875
20
29.317615625000002
30
0
0
VERTEX
8
0
10
28.195434375
20
29.270015625000003
30
0
42
0.2353910269213744
0
VERTEX
8
0
10
28.168121875
20
28.824787500000003
30
0
0
VERTEX
8
0
10
28.175846875
20
28.809284375
30
0
0
VERTEX
8
0
10
28.185571875
20
28.787903125
30
0
0
VERTEX
8
0
10
28.191175
20
28.778528125
30
0
0
VERTEX
8
0
10
28.195425
20
28.769996875
30
0
0
VERTEX
8
0
10
28.2975375
20
28.5931375
30
0
0
VERTEX
8
0
10
28.446396875
20
28.037581250000002
30
0
0
VERTEX
8
0
10
28.446396875
20
27.462415625000002
30
0
0
VERTEX
8
0
10
28.297534375
20
26.906853125
30
0
0
VERTEX
8
0
10
28.009953125000003
20
26.408743750000003
30
0
0
VERTEX
8
0
10
27.603259375
20
26.00205
30
0
0
VERTEX
8
0
10
27.499521875000003
20
25.942159375000003
30
0
42
0.1503114781814684
0
VERTEX
8
0
10
27.3000125
20
25.72651875
30
0
0
VERTEX
8
0
10
27.291659375000002
20
25.7100125
30
0
42
0.09646661268479328
0
VERTEX
8
0
10
27.096131250000003
20
25.706609375000003
30
0
0
VERTEX
8
0
10
27.083690625000003
20
25.704371875
30
0
0
VERTEX
8
0
10
27.043471875
20
25.6975625
30
0
0
VERTEX
8
0
10
27.043390625
20
25.697540625000002
30
0
0
VERTEX
8
0
10
27.043343750000002
20
25.69753125
30
0
42
0.0038336013337403716
0
VERTEX
8
0
10
27.035881250000003
20
25.695771875000002
30
0
0
VERTEX
8
0
10
27.035753125000003
20
25.695740625000003
30
0
42
0.05596796155164369
0
VERTEX
8
0
10
26.930971875
20
25.65736875
30
0
0
VERTEX
8
0
10
26.910071875
20
25.645434375
30
0
0
VERTEX
8
0
10
26.89356875
20
25.63635
30
0
0
VERTEX
8
0
10
26.87478125
20
25.66446875
30
0
0
VERTEX
8
0
10
26.827284375
20
25.72234375
30
0
42
0.19891250027469518
0
VERTEX
8
0
10
26.299434375
20
25.972
30
0
0
VERTEX
8
0
10
24.700565625
20
25.972
30
0
0
VERTEX
8
0
10
24.62605625
20
25.964662500000003
30
0
42
0.9063472543261978
0
VERTEX
8
0
10
24.700565625
20
24.448
30
0
0
VERTEX
8
0
10
24.99998125
20
24.448
30
0
0
VERTEX
8
0
10
24.99998125
20
24.194000000000003
30
0
0
VERTEX
8
0
10
24.65803125
20
24.194000000000003
30
0
0
VERTEX
8
0
10
24.500096875
20
24.2190125
30
0
0
VERTEX
8
0
10
24.347996875
20
24.268434375000002
30
0
0
VERTEX
8
0
10
24.205496875
20
24.341040625
30
0
0
VERTEX
8
0
10
24.1837875
20
24.356815625
30
0
42
0.6652834801974055
0
VERTEX
8
0
10
23.395415625000002
20
23.878090625000002
30
0
0
VERTEX
8
0
10
23.4067875
20
23.82338125
30
0
42
0.00024256547834065046
0
VERTEX
8
0
10
23.4069125
20
23.8229125
30
0
0
VERTEX
8
0
10
23.630196875000003
20
22.98960625
30
0
0
VERTEX
8
0
10
23.630196875000003
20
22.190390625000003
30
0
0
VERTEX
8
0
10
23.423346875
20
21.418415625
30
0
0
VERTEX
8
0
10
23.023740625000002
20
20.72628125
30
0
0
VERTEX
8
0
10
22.458615625
20
20.16115625
30
0
0
VERTEX
8
0
10
21.766481250000002
20
19.76155
30
0
0
VERTEX
8
0
10
20.99450625
20
19.5547
30
0
0
SEQEND
0
POLYLINE
66
1
8
16_copper
10
0.0
20
0.0
30
0.0
70
1
0
VERTEX
8
0
10
27.049365625
20
24.721296875
30
0
0
VERTEX
8
0
10
27.06945625
20
24.717996875
30
0
0
VERTEX
8
0
10
27.093131250000003
20
24.713728125000003
30
0
42
0.0038990149924197554
0
VERTEX
8
0
10
27.100878125
20
24.712837500000003
30
0
0
VERTEX
8
0
10
27.141403125
20
24.71076875
30
0
42
-0.001644651637803747
0
VERTEX
8
0
10
27.147709375
20
24.71038125
30
0
0
VERTEX
8
0
10
27.130953125
20
24.67749375
30
0
0
VERTEX
8
0
10
27.115053125000003
20
24.655609375
30
0
0
SEQEND
0
POLYLINE
66
1
8
16_copper
10
0.0
20
0.0
30
0.0
70
1
0
VERTEX
8
0
10
31.0300125
20
22.330000000000002
30
0
0
VERTEX
8
0
10
31.0300125
20
22.373137500000002
30
0
0
VERTEX
8
0
10
31.073150000000002
20
22.330000000000002
30
0
0
SEQEND
0
POLYLINE
66
1
8
16_copper
10
0.0
20
0.0
30
0.0
70
1
0
VERTEX
8
0
10
29.986846875
20
22.330000000000002
30
0
0
VERTEX
8
0
10
30.029981250000002
20
22.373134375
30
0
0
VERTEX
8
0
10
30.029981250000002
20
22.330000000000002
30
0
0
SEQEND
0
POLYLINE
66
1
8
16_copper
10
0.0
20
0.0
30
0.0
70
1
0
VERTEX
8
0
10
29.986843750000002
20
20.830000000000002
30
0
0
VERTEX
8
0
10
30.029981250000002
20
20.830000000000002
30
0
0
VERTEX
8
0
10
30.029981250000002
20
20.7868625
30
0
0
SEQEND
0
POLYLINE
66
1
8
16_copper
10
0.0
20
0.0
30
0.0
70
1
0
VERTEX
8
0
10
38.816018750000005
20
16.1800125
30
0
0
VERTEX
8
0
10
38.794193750000005
20
16.2178125
30
0
42
0.24469763681674025
0
VERTEX
8
0
10
37.9936625
20
16.68
30
0
0
VERTEX
8
0
10
37.4500125
20
16.68
30
0
0
VERTEX
8
0
10
37.4500125
20
16.933996875000002
30
0
0
VERTEX
8
0
10
38.032190625
20
16.933996875000002
30
0
0
VERTEX
8
0
10
38.19516875
20
16.912540625000002
30
0
0
VERTEX
8
0
10
38.353953125000004
20
16.869993750000003
30
0
0
VERTEX
8
0
10
38.505815625000004
20
16.807090625
30
0
0
VERTEX
8
0
10
38.64816875
20
16.724903125
30
0
0
VERTEX
8
0
10
38.778596875000005
20
16.624821875000002
30
0
0
VERTEX
8
0
10
38.894821875000005
20
16.508596875000002
30
0
0
VERTEX
8
0
10
38.994903125
20
16.37816875
30
0
0
VERTEX
8
0
10
39.077090625000004
20
16.235815625
30
0
0
VERTEX
8
0
10
39.10020625
20
16.1800125
30
0
0
SEQEND
0
POLYLINE
66
1
8
16_copper
10
0.0
20
0.0
30
0.0
70
1
0
VERTEX
8
0
10
34.799790625
20
16.1800125
30
0
0
VERTEX
8
0
10
34.82290625
20
16.235815625
30
0
0
VERTEX
8
0
10
34.90509375
20
16.37816875
30
0
0
VERTEX
8
0
10
35.005175
20
16.508596875000002
30
0
0
VERTEX
8
0
10
35.032959375000004
20
16.53638125
30
0
0
VERTEX
8
0
10
35.212562500000004
20
16.356778125
30
0
0
VERTEX
8
0
10
35.21201875
20
16.356234375
30
0
42
0.04366041301627082
0
VERTEX
8
0
10
35.10580625
20
16.2178125
30
0
0
VERTEX
8
0
10
35.08398125
20
16.1800125
30
0
0
SEQEND
0
POLYLINE
66
1
8
16_copper
10
0.0
20
0.0
30
0.0
70
1
0
VERTEX
8
0
10
35.86780625
20
14.426
30
0
0
VERTEX
8
0
10
35.704828125
20
14.44745625
30
0
0
VERTEX
8
0
10
35.54604375
20
14.490003125000001
30
0
0
VERTEX
8
0
10
35.39418125
20
14.552906250000001
30
0
0
VERTEX
8
0
10
35.251828125
20
14.635093750000001
30
0
0
VERTEX
8
0
10
35.1214
20
14.735175
30
0
0
VERTEX
8
0
10
35.005175
20
14.8514
30
0
0
VERTEX
8
0
10
34.90509375
20
14.981828125000002
30
0
0
VERTEX
8
0
10
34.82290625
20
15.124181250000001
30
0
0
VERTEX
8
0
10
34.79979375
20
15.17998125
30
0
0
VERTEX
8
0
10
35.083984375
20
15.17998125
30
0
0
VERTEX
8
0
10
35.10580625
20
15.1421875
30
0
42
0.24469763681674025
0
VERTEX
8
0
10
35.9063375
20
14.680000000000001
30
0
0
VERTEX
8
0
10
36.44998125
20
14.680000000000001
30
0
0
VERTEX
8
0
10
36.44998125
20
14.425996875000001
30
0
0
SEQEND
0
POLYLINE
66
1
8
1_copper
10
0.0
20
0.0
30
0.0
70
1
0
VERTEX
8
0
10
21.107
20
40.199925
30
0
0
VERTEX
8
0
10
21.107
20
41.778075
30
0
0
VERTEX
8
0
10
19.991075000000002
20
42.894000000000005
30
0
0
VERTEX
8
0
10
18.412925
20
42.894000000000005
30
0
0
VERTEX
8
0
10
17.297
20
41.778075
30
0
0
VERTEX
8
0
10
17.297
20
40.199925
30
0
0
VERTEX
8
0
10
18.412925
20
39.084
30
0
0
VERTEX
8
0
10
19.991075000000002
20
39.084
30
0
0
SEQEND
0
POLYLINE
66
1
8
1_copper
10
0.0
20
0.0
30
0.0
70
1
0
VERTEX
8
0
10
37.34394375
20
23.9153375
30
0
42
0.9063472543261978
0
VERTEX
8
0
10
37.269434375
20
25.432000000000002
30
0
0
VERTEX
8
0
10
35.670565625
20
25.432000000000002
30
0
0
VERTEX
8
0
10
35.596056250000004
20
25.4246625
30
0
42
0.9063472543261978
0
VERTEX
8
0
10
35.670565625
20
23.908
30
0
0
VERTEX
8
0
10
37.269434375
20
23.908
30
0
0
SEQEND
0
POLYLINE
66
1
8
16_copper
10
0.0
20
0.0
30
0.0
70
1
0
VERTEX
8
0
10
49.00656875
20
20.6503
30
0
0
VERTEX
8
0
10
49.01310625
20
20.650115625
30
0
42
0.16113935186375775
0
VERTEX
8
0
10
49.457784375
20
20.80591875
30
0
0
VERTEX
8
0
10
49.467800000000004
20
20.81471875
30
0
0
VERTEX
8
0
10
49.500353125000004
20
20.8413
30
0
0
VERTEX
8
0
10
49.5200875
20
20.860668750000002
30
0
0
VERTEX
8
0
10
49.53033125
20
20.869668750000002
30
0
0
VERTEX
8
0
10
50.43033125
20
21.76966875
30
0
0
VERTEX
8
0
10
50.434771875
20
21.7745375
30
0
0
VERTEX
8
0
10
50.439515625000006
20
21.779018750000002
30
0
42
0.1611399997574087
0
VERTEX
8
0
10
50.64378125
20
22.203625000000002
30
0
0
VERTEX
8
0
10
50.6446375
20
22.21690625
30
0
0
VERTEX
8
0
10
50.648865625
20
22.25874375
30
0
0
VERTEX
8
0
10
50.649125000000005
20
22.2864375
30
0
0
VERTEX
8
0
10
50.650000000000006
20
22.3
30
0
0
VERTEX
8
0
10
50.650000000000006
20
33.9
30
0
0
VERTEX
8
0
10
50.6497
20
33.90656875
30
0
0
VERTEX
8
0
10
50.649884375
20
33.91310625
30
0
42
0.16113935186375775
0
VERTEX
8
0
10
50.49408125
20
34.357784375
30
0
0
VERTEX
8
0
10
50.48528125
20
34.3678
30
0
0
VERTEX
8
0
10
50.4587
20
34.400353125
30
0
0
VERTEX
8
0
10
50.43933125
20
34.4200875
30
0
0
VERTEX
8
0
10
50.43033125
20
34.43033125
30
0
0
VERTEX
8
0
10
49.93033125
20
34.93033125
30
0
0
VERTEX
8
0
10
49.9254625
20
34.934771875
30
0
0
VERTEX
8
0
10
49.920981250000004
20
34.939515625
30
0
42
0.1611399997574087
0
VERTEX
8
0
10
49.496375
20
35.14378125
30
0
0
VERTEX
8
0
10
49.48309375
20
35.1446375
30
0
0
VERTEX
8
0
10
49.44125625
20
35.148865625
30
0
0
VERTEX
8
0
10
49.413562500000005
20
35.149125000000005
30
0
0
VERTEX
8
0
10
49.400000000000006
20
35.15
30
0
0
VERTEX
8
0
10
45.4106625
20
35.15
30
0
0
VERTEX
8
0
10
43.65
20
36.9106625
30
0
0
VERTEX
8
0
10
43.65
20
49.1
30
0
0
VERTEX
8
0
10
43.6497
20
49.10656875
30
0
0
VERTEX
8
0
10
43.649884375
20
49.11310625
30
0
42
0.16113935186375775
0
VERTEX
8
0
10
43.49408125
20
49.557784375000004
30
0
0
VERTEX
8
0
10
43.48528125
20
49.567800000000005
30
0
0
VERTEX
8
0
10
43.4587
20
49.600353125000005
30
0
0
VERTEX
8
0
10
43.43933125
20
49.620087500000004
30
0
0
VERTEX
8
0
10
43.43033125
20
49.630331250000005
30
0
0
VERTEX
8
0
10
40.83033125
20
52.23033125
30
0
0
VERTEX
8
0
10
40.8254625
20
52.234771875
30
0
0
VERTEX
8
0
10
40.82098125
20
52.239515625
30
0
42
0.1611399997574087
0
VERTEX
8
0
10
40.396375
20
52.44378125
30
0
0
VERTEX
8
0
10
40.38309375
20
52.444637500000006
30
0
0
VERTEX
8
0
10
40.34125625
20
52.448865625
30
0
0
VERTEX
8
0
10
40.3135625
20
52.449125
30
0
0
VERTEX
8
0
10
40.300000000000004
20
52.45
30
0
0
VERTEX
8
0
10
29.6
20
52.45
30
0
0
VERTEX
8
0
10
29.572803125
20
52.448759375
30
0
0
VERTEX
8
0
10
29.545662500000002
20
52.448028125
30
0
42
0.356390537871365
0
VERTEX
8
0
10
28.85621875
20
51.796375000000005
30
0
0
VERTEX
8
0
10
28.855856250000002
20
51.79078125
30
0
0
VERTEX
8
0
10
28.854540625000002
20
51.782390625000005
30
0
0
VERTEX
8
0
10
28.85013125
20
51.714084375000006
30
0
0
VERTEX
8
0
10
28.850359375
20
51.705578125
30
0
0
VERTEX
8
0
10
28.85
20
51.7
30
0
0
VERTEX
8
0
10
28.85
20
51.6976625
30
0
0
VERTEX
8
0
10
20.01870625
20
42.86636875
30
0
0
VERTEX
8
0
10
19.991075000000002
20
42.894000000000005
30
0
0
VERTEX
8
0
10
18.412925
20
42.894000000000005
30
0
0
VERTEX
8
0
10
17.297
20
41.778075
30
0
0
VERTEX
8
0
10
17.297
20
40.199925
30
0
0
VERTEX
8
0
10
18.412925
20
39.084
30
0
0
VERTEX
8
0
10
19.991075000000002
20
39.084
30
0
0
VERTEX
8
0
10
21.107
20
40.199925
30
0
0
VERTEX
8
0
10
21.107
20
41.778075
30
0
0
VERTEX
8
0
10
21.07936875
20
41.80570625
30
0
0
VERTEX
8
0
10
30.13033125
20
50.856668750000004
30
0
0
VERTEX
8
0
10
30.134771875000002
20
50.861537500000004
30
0
0
VERTEX
8
0
10
30.139515625
20
50.86601875
30
0
42
0.022827671430752334
0
VERTEX
8
0
10
30.184765625
20
50.917375
30
0
0
VERTEX
8
0
10
30.20106875
20
50.939687500000005
30
0
0
VERTEX
8
0
10
30.20888125
20
50.95
30
0
0
VERTEX
8
0
10
39.989337500000005
20
50.95
30
0
0
VERTEX
8
0
10
42.15
20
48.7893375
30
0
0
VERTEX
8
0
10
42.15
20
36.6
30
0
0
VERTEX
8
0
10
42.1503
20
36.59343125
30
0
0
VERTEX
8
0
10
42.150115625000005
20
36.58689375
30
0
42
0.16113935186375775
0
VERTEX
8
0
10
42.305918750000004
20
36.142215625
30
0
0
VERTEX
8
0
10
42.314718750000004
20
36.132200000000005
30
0
0
VERTEX
8
0
10
42.341300000000004
20
36.099646875000005
30
0
0
VERTEX
8
0
10
42.36066875
20
36.0799125
30
0
0
VERTEX
8
0
10
42.36966875
20
36.069668750000005
30
0
0
VERTEX
8
0
10
44.569668750000005
20
33.86966875
30
0
0
VERTEX
8
0
10
44.574537500000005
20
33.865228125
30
0
0
VERTEX
8
0
10
44.57901875
20
33.860484375
30
0
42
0.1611399997574087
0
VERTEX
8
0
10
45.003625
20
33.65621875
30
0
0
VERTEX
8
0
10
45.016906250000005
20
33.6553625
30
0
0
VERTEX
8
0
10
45.058743750000005
20
33.651134375000005
30
0
0
VERTEX
8
0
10
45.0864375
20
33.650875
30
0
0
VERTEX
8
0
10
45.1
20
33.65
30
0
0
VERTEX
8
0
10
49.0893375
20
33.65
30
0
0
VERTEX
8
0
10
49.150000000000006
20
33.5893375
30
0
0
VERTEX
8
0
10
49.150000000000006
20
22.6106625
30
0
0
VERTEX
8
0
10
48.6893375
20
22.150000000000002
30
0
0
VERTEX
8
0
10
37.22
20
22.150000000000002
30
0
0
VERTEX
8
0
10
37.22
20
23.908
30
0
0
VERTEX
8
0
10
37.269434375
20
23.908
30
0
42
0.9520795017710562
0
VERTEX
8
0
10
37.269434375
20
25.432000000000002
30
0
0
VERTEX
8
0
10
35.670565625
20
25.432000000000002
30
0
0
VERTEX
8
0
10
35.596056250000004
20
25.4246625
30
0
42
0.9063472543261978
0
VERTEX
8
0
10
35.670565625
20
23.908
30
0
0
VERTEX
8
0
10
35.72
20
23.908
30
0
0
VERTEX
8
0
10
35.72
20
21.630000000000003
30
0
0
VERTEX
8
0
10
35.7203
20
21.62343125
30
0
0
VERTEX
8
0
10
35.720115625
20
21.616893750000003
30
0
42
0.16113935186375775
0
VERTEX
8
0
10
35.875918750000004
20
21.172215625
30
0
0
VERTEX
8
0
10
35.884718750000005
20
21.162200000000002
30
0
0
VERTEX
8
0
10
35.911300000000004
20
21.129646875000002
30
0
0
VERTEX
8
0
10
35.93066875
20
21.1099125
30
0
0
VERTEX
8
0
10
35.93966875
20
21.09966875
30
0
0
VERTEX
8
0
10
36.16966875
20
20.869668750000002
30
0
0
VERTEX
8
0
10
36.1745375
20
20.865228125
30
0
0
VERTEX
8
0
10
36.179018750000004
20
20.860484375000002
30
0
42
0.1611399997574087
0
VERTEX
8
0
10
36.603625
20
20.65621875
30
0
0
VERTEX
8
0
10
36.61690625
20
20.655362500000003
30
0
0
VERTEX
8
0
10
36.65874375
20
20.651134375
30
0
0
VERTEX
8
0
10
36.686437500000004
20
20.650875000000003
30
0
0
VERTEX
8
0
10
36.7
20
20.650000000000002
30
0
0
VERTEX
8
0
10
49
20
20.650000000000002
30
0
0
SEQEND
0
POLYLINE
66
1
8
1_copper
10
0.0
20
0.0
30
0.0
70
1
0
VERTEX
8
0
10
21.107
20
51.121925000000005
30
0
0
VERTEX
8
0
10
21.107
20
52.700075000000005
30
0
0
VERTEX
8
0
10
19.991075000000002
20
53.816
30
0
0
VERTEX
8
0
10
18.412925
20
53.816
30
0
0
VERTEX
8
0
10
17.297
20
52.700075000000005
30
0
0
VERTEX
8
0
10
17.297
20
51.121925000000005
30
0
0
VERTEX
8
0
10
18.412925
20
50.006
30
0
0
VERTEX
8
0
10
19.991075000000002
20
50.006
30
0
0
SEQEND
0
POLYLINE
66
1
8
1_copper
10
0.0
20
0.0
30
0.0
70
1
0
VERTEX
8
0
10
6.529075000000001
20
20.98400625
30
0
42
0.9366029202216614
0
VERTEX
8
0
10
6.4237
20
24.2029
30
0
0
VERTEX
8
0
10
3.0923000000000003
20
24.2029
30
0
0
VERTEX
8
0
10
2.9869250000000003
20
24.19599375
30
0
42
0.9366029202216614
0
VERTEX
8
0
10
3.0923000000000003
20
20.9771
30
0
0
VERTEX
8
0
10
6.4237
20
20.9771
30
0
0
SEQEND
0
POLYLINE
66
1
8
1_copper
10
0.0
20
0.0
30
0.0
70
1
0
VERTEX
8
0
10
41.88065
20
10.587609375000001
30
0
42
0.3639699917874411
0
VERTEX
8
0
10
42.75
20
11.5363375
30
0
0
VERTEX
8
0
10
42.75
20
13.6236625
30
0
0
VERTEX
8
0
10
42.742390625
20
13.710650000000001
30
0
42
0.9163307801196574
0
VERTEX
8
0
10
40.75
20
13.6236625
30
0
0
VERTEX
8
0
10
40.75
20
11.5363375
30
0
0
VERTEX
8
0
10
40.757609375
20
11.44935
30
0
42
0.3888793799364599
0
VERTEX
8
0
10
41.7936625
20
10.58
30
0
0
SEQEND
0
POLYLINE
66
1
8
1_copper
10
0.0
20
0.0
30
0.0
70
1
0
VERTEX
8
0
10
38.08065
20
8.587609375
30
0
42
0.9163307801196574
0
VERTEX
8
0
10
37.9936625
20
10.58
30
0
0
VERTEX
8
0
10
35.9063375
20
10.58
30
0
0
VERTEX
8
0
10
35.81935
20
10.572390625
30
0
42
0.9163307801196574
0
VERTEX
8
0
10
35.9063375
20
8.58
30
0
0
VERTEX
8
0
10
37.9936625
20
8.58
30
0
0
SEQEND
0
POLYLINE
66
1
8
16_copper
10
0.0
20
0.0
30
0.0
70
1
0
VERTEX
8
0
10
36.67256875
20
1.0163
30
0
0
VERTEX
8
0
10
36.679106250000004
20
1.016115625
30
0
42
0.16113935186375775
0
VERTEX
8
0
10
37.123784375
20
1.1719187500000001
30
0
0
VERTEX
8
0
10
37.1338
20
1.18071875
30
0
0
VERTEX
8
0
10
37.166353125
20
1.2073
30
0
0
VERTEX
8
0
10
37.1860875
20
1.22666875
30
0
0
VERTEX
8
0
10
37.19633125
20
1.23566875
30
0
0
VERTEX
8
0
10
37.256821875
20
1.296159375
30
0
0
VERTEX
8
0
10
37.29305625
20
1.309625
30
0
42
0.3823277879352083
0
VERTEX
8
0
10
37.718390625000005
20
2.2154406250000003
30
0
0
VERTEX
8
0
10
37.7
20
2.267928125
30
0
0
VERTEX
8
0
10
37.7
20
8.58
30
0
0
VERTEX
8
0
10
37.9936625
20
8.58
30
0
0
VERTEX
8
0
10
38.08065
20
8.587609375
30
0
42
0.13165248758670367
0
VERTEX
8
0
10
38.559340625000004
20
8.785890625
30
0
0
VERTEX
8
0
10
38.611909375
20
8.83
30
0
0
VERTEX
8
0
10
38.75
20
8.83
30
0
42
0.16562496155593698
0
VERTEX
8
0
10
39.207784375
20
8.98591875
30
0
0
VERTEX
8
0
10
39.217800000000004
20
8.99471875
30
0
0
VERTEX
8
0
10
39.250353125000004
20
9.0213
30
0
0
VERTEX
8
0
10
39.2700875
20
9.04066875
30
0
0
VERTEX
8
0
10
39.28033125
20
9.04966875
30
0
0
VERTEX
8
0
10
41.073225
20
10.8425625
30
0
0
VERTEX
8
0
10
41.073765625
20
10.842018750000001
30
0
42
0.6370694944828084
0
VERTEX
8
0
10
42.75
20
11.5363375
30
0
0
VERTEX
8
0
10
42.75
20
13.6236625
30
0
0
VERTEX
8
0
10
42.742390625
20
13.710650000000001
30
0
42
0.9163307801196574
0
VERTEX
8
0
10
40.75
20
13.6236625
30
0
0
VERTEX
8
0
10
40.75
20
12.640662500000001
30
0
0
VERTEX
8
0
10
38.514703125000004
20
10.405365625
30
0
0
VERTEX
8
0
10
38.487812500000004
20
10.42419375
30
0
42
0.13165248109655878
0
VERTEX
8
0
10
37.9936625
20
10.58
30
0
0
VERTEX
8
0
10
35.9063375
20
10.58
30
0
0
VERTEX
8
0
10
35.81935
20
10.572390625
30
0
42
0.9163307801196574
0
VERTEX
8
0
10
35.9063375
20
8.58
30
0
0
VERTEX
8
0
10
36.2
20
8.58
30
0
0
VERTEX
8
0
10
36.2
20
2.516
30
0
0
VERTEX
8
0
10
2.516
20
2.516
30
0
0
VERTEX
8
0
10
2.516
20
19.2873375
30
0
0
VERTEX
8
0
10
4.2057625000000005
20
20.9771
30
0
0
VERTEX
8
0
10
6.4237
20
20.9771
30
0
0
VERTEX
8
0
10
6.529075000000001
20
20.98400625
30
0
42
0.9366029202216614
0
VERTEX
8
0
10
6.4237
20
24.2029
30
0
0
VERTEX
8
0
10
5.508
20
24.2029
30
0
0
VERTEX
8
0
10
5.508
20
30.2473375
30
0
0
VERTEX
8
0
10
13.23033125
20
37.969668750000004
30
0
0
VERTEX
8
0
10
13.234771875
20
37.974537500000004
30
0
0
VERTEX
8
0
10
13.239515625000001
20
37.97901875
30
0
42
0.1611399997574087
0
VERTEX
8
0
10
13.44378125
20
38.403625000000005
30
0
0
VERTEX
8
0
10
13.4446375
20
38.416906250000004
30
0
0
VERTEX
8
0
10
13.448865625
20
38.458743750000004
30
0
0
VERTEX
8
0
10
13.449125
20
38.4864375
30
0
0
VERTEX
8
0
10
13.450000000000001
20
38.5
30
0
0
VERTEX
8
0
10
13.450000000000001
20
51.161
30
0
0
VERTEX
8
0
10
17.297
20
51.161
30
0
0
VERTEX
8
0
10
17.297
20
51.121925000000005
30
0
0
VERTEX
8
0
10
18.412925
20
50.006
30
0
0
VERTEX
8
0
10
19.991075000000002
20
50.006
30
0
0
VERTEX
8
0
10
21.107
20
51.121925000000005
30
0
0
VERTEX
8
0
10
21.107
20
52.700075000000005
30
0
0
VERTEX
8
0
10
19.991075000000002
20
53.816
30
0
0
VERTEX
8
0
10
18.412925
20
53.816
30
0
0
VERTEX
8
0
10
17.297
20
52.700075000000005
30
0
0
VERTEX
8
0
10
17.297
20
52.661
30
0
0
VERTEX
8
0
10
12.711
20
52.661
30
0
0
VERTEX
8
0
10
12.70443125
20
52.660700000000006
30
0
0
VERTEX
8
0
10
12.69789375
20
52.660884375
30
0
42
0.15965088611461753
0
VERTEX
8
0
10
12.253215625000001
20
52.50508125
30
0
0
VERTEX
8
0
10
12.2432
20
52.49628125
30
0
0
VERTEX
8
0
10
12.210646875
20
52.4697
30
0
0
VERTEX
8
0
10
12.190912500000001
20
52.450331250000005
30
0
0
VERTEX
8
0
10
12.18066875
20
52.441331250000005
30
0
0
VERTEX
8
0
10
12.169668750000001
20
52.43033125
30
0
42
0.16562544926681777
0
VERTEX
8
0
10
11.956218750000001
20
51.996375
30
0
0
VERTEX
8
0
10
11.955362500000001
20
51.98309375
30
0
0
VERTEX
8
0
10
11.951134375
20
51.94125625
30
0
0
VERTEX
8
0
10
11.950875
20
51.913562500000005
30
0
0
VERTEX
8
0
10
11.950000000000001
20
51.900000000000006
30
0
0
VERTEX
8
0
10
11.950000000000001
20
38.8106625
30
0
0
VERTEX
8
0
10
4.22766875
20
31.088331250000003
30
0
0
VERTEX
8
0
10
4.223228125
20
31.083462500000003
30
0
0
VERTEX
8
0
10
4.218484375
20
31.078981250000002
30
0
42
0.1611399997574087
0
VERTEX
8
0
10
4.01421875
20
30.654375
30
0
0
VERTEX
8
0
10
4.0133625
20
30.641093750000003
30
0
0
VERTEX
8
0
10
4.009134375
20
30.59925625
30
0
0
VERTEX
8
0
10
4.008875000000001
20
30.571562500000002
30
0
0
VERTEX
8
0
10
4.008
20
30.558
30
0
0
VERTEX
8
0
10
4.008
20
24.2029
30
0
0
VERTEX
8
0
10
3.0923000000000003
20
24.2029
30
0
0
VERTEX
8
0
10
2.9869250000000003
20
24.19599375
30
0
42
0.7165900609853566
0
VERTEX
8
0
10
2.292921875
20
21.2195875
30
0
0
VERTEX
8
0
10
2.314478125
20
21.207140625
30
0
0
VERTEX
8
0
10
1.23566875
20
20.128331250000002
30
0
0
VERTEX
8
0
10
1.2312281250000001
20
20.123462500000002
30
0
0
VERTEX
8
0
10
1.226484375
20
20.11898125
30
0
42
0.1611399997574087
0
VERTEX
8
0
10
1.02221875
20
19.694375
30
0
0
VERTEX
8
0
10
1.0213625
20
19.681093750000002
30
0
0
VERTEX
8
0
10
1.0171343750000001
20
19.639256250000003
30
0
0
VERTEX
8
0
10
1.016875
20
19.6115625
30
0
0
VERTEX
8
0
10
1.016
20
19.598000000000003
30
0
0
VERTEX
8
0
10
1.016
20
1.766
30
0
0
VERTEX
8
0
10
1.0172406250000001
20
1.738803125
30
0
0
VERTEX
8
0
10
1.017971875
20
1.7116625
30
0
42
0.356390537871365
0
VERTEX
8
0
10
1.6696250000000001
20
1.02221875
30
0
0
VERTEX
8
0
10
1.67521875
20
1.0218562500000001
30
0
0
VERTEX
8
0
10
1.683609375
20
1.020540625
30
0
0
VERTEX
8
0
10
1.751915625
20
1.0161312500000002
30
0
0
VERTEX
8
0
10
1.760421875
20
1.016359375
30
0
0
VERTEX
8
0
10
1.766
20
1.016
30
0
0
VERTEX
8
0
10
36.666000000000004
20
1.016
30
0
0
SEQEND
0
POLYLINE
66
1
8
1_copper
10
0.0
20
0.0
30
0.0
70
1
0
VERTEX
8
0
10
39.3804
20
34.25645625
30
0
0
VERTEX
8
0
10
39.3804
20
34.80354375
30
0
0
VERTEX
8
0
10
38.99354375
20
35.190400000000004
30
0
0
VERTEX
8
0
10
38.446456250000004
20
35.190400000000004
30
0
0
VERTEX
8
0
10
38.0596
20
34.80354375
30
0
0
VERTEX
8
0
10
38.0596
20
34.25645625
30
0
0
VERTEX
8
0
10
38.446456250000004
20
33.8696
30
0
0
VERTEX
8
0
10
38.99354375
20
33.8696
30
0
0
SEQEND
0
POLYLINE
66
1
8
1_copper
10
0.0
20
0.0
30
0.0
70
1
0
VERTEX
8
0
10
41.8004
20
29.73645625
30
0
0
VERTEX
8
0
10
41.8004
20
30.28354375
30
0
0
VERTEX
8
0
10
41.41354375
20
30.6704
30
0
0
VERTEX
8
0
10
40.86645625
20
30.6704
30
0
0
VERTEX
8
0
10
40.479600000000005
20
30.28354375
30
0
0
VERTEX
8
0
10
40.479600000000005
20
29.73645625
30
0
0
VERTEX
8
0
10
40.86645625
20
29.349600000000002
30
0
0
VERTEX
8
0
10
41.41354375
20
29.349600000000002
30
0
0
SEQEND
0
POLYLINE
66
1
8
1_copper
10
0.0
20
0.0
30
0.0
70
1
0
VERTEX
8
0
10
37.34394375
20
28.9953375
30
0
42
0.9063472543261978
0
VERTEX
8
0
10
37.269434375
20
30.512
30
0
0
VERTEX
8
0
10
35.670565625
20
30.512
30
0
0
VERTEX
8
0
10
35.596056250000004
20
30.504662500000002
30
0
42
0.9063472543261978
0
VERTEX
8
0
10
35.670565625
20
28.988000000000003
30
0
0
VERTEX
8
0
10
37.269434375
20
28.988000000000003
30
0
0
SEQEND
0
POLYLINE
66
1
8
16_copper
10
0.0
20
0.0
30
0.0
70
1
0
VERTEX
8
0
10
37.34394375
20
28.9953375
30
0
42
0.17351644821441028
0
VERTEX
8
0
10
37.797284375000004
20
29.23765625
30
0
0
VERTEX
8
0
10
37.815621875000005
20
29.26
30
0
0
VERTEX
8
0
10
41.14
20
29.26
30
0
0
VERTEX
8
0
10
41.153600000000004
20
29.260621875000002
30
0
0
VERTEX
8
0
10
41.167187500000004
20
29.260493750000002
30
0
42
0.6162690223825953
0
VERTEX
8
0
10
41.725109375
20
30.477996875000002
30
0
0
VERTEX
8
0
10
41.708000000000006
20
30.499771875
30
0
0
VERTEX
8
0
10
41.679171875
20
30.530271875
30
0
0
VERTEX
8
0
10
41.670331250000004
20
30.54033125
30
0
0
VERTEX
8
0
10
41.57
20
30.6406625
30
0
0
VERTEX
8
0
10
41.57
20
32.43
30
0
0
VERTEX
8
0
10
41.569700000000005
20
32.43656875
30
0
0
VERTEX
8
0
10
41.569884375
20
32.44310625
30
0
42
0.16113935186375775
0
VERTEX
8
0
10
41.41408125
20
32.887784375
30
0
0
VERTEX
8
0
10
41.40528125
20
32.897800000000004
30
0
0
VERTEX
8
0
10
41.3787
20
32.930353125
30
0
0
VERTEX
8
0
10
41.359331250000004
20
32.9500875
30
0
0
VERTEX
8
0
10
41.35033125
20
32.96033125
30
0
0
VERTEX
8
0
10
39.25033125
20
35.060331250000004
30
0
0
VERTEX
8
0
10
39.199771875
20
35.106471875000004
30
0
42
0.8955651421704383
0
VERTEX
8
0
10
38.125918750000004
20
34.072215625
30
0
0
VERTEX
8
0
10
38.18966875
20
33.999668750000005
30
0
0
VERTEX
8
0
10
40.07
20
32.1193375
30
0
0
VERTEX
8
0
10
40.07
20
30.76
30
0
0
VERTEX
8
0
10
36.730000000000004
20
30.76
30
0
0
VERTEX
8
0
10
36.723431250000004
20
30.759700000000002
30
0
0
VERTEX
8
0
10
36.716893750000004
20
30.759884375000002
30
0
42
0.16113935186375775
0
VERTEX
8
0
10
36.272215625
20
30.60408125
30
0
0
VERTEX
8
0
10
36.2622
20
30.595281250000003
30
0
0
VERTEX
8
0
10
36.229646875
20
30.5687
30
0
0
VERTEX
8
0
10
36.2099125
20
30.54933125
30
0
0
VERTEX
8
0
10
36.19966875
20
30.54033125
30
0
0
VERTEX
8
0
10
36.1713375
20
30.512
30
0
0
VERTEX
8
0
10
35.670565625
20
30.512
30
0
0
VERTEX
8
0
10
35.596056250000004
20
30.504662500000002
30
0
42
0.9063472543261978
0
VERTEX
8
0
10
35.670565625
20
28.988000000000003
30
0
0
VERTEX
8
0
10
37.269434375
20
28.988000000000003
30
0
0
SEQEND
0
POLYLINE
66
1
8
1_copper
10
0.0
20
0.0
30
0.0
70
1
0
VERTEX
8
0
10
44.3404
20
29.73645625
30
0
0
VERTEX
8
0
10
44.3404
20
30.28354375
30
0
0
VERTEX
8
0
10
43.95354375
20
30.6704
30
0
0
VERTEX
8
0
10
43.406456250000005
20
30.6704
30
0
0
VERTEX
8
0
10
43.019600000000004
20
30.28354375
30
0
0
VERTEX
8
0
10
43.019600000000004
20
29.73645625
30
0
0
VERTEX
8
0
10
43.406456250000005
20
29.349600000000002
30
0
0
VERTEX
8
0
10
43.95354375
20
29.349600000000002
30
0
0
SEQEND
0
POLYLINE
66
1
8
1_copper
10
0.0
20
0.0
30
0.0
70
1
0
VERTEX
8
0
10
47.690400000000004
20
24.81645625
30
0
0
VERTEX
8
0
10
47.690400000000004
20
25.36354375
30
0
0
VERTEX
8
0
10
47.30354375
20
25.750400000000003
30
0
0
VERTEX
8
0
10
46.75645625
20
25.750400000000003
30
0
0
VERTEX
8
0
10
46.369600000000005
20
25.36354375
30
0
0
VERTEX
8
0
10
46.369600000000005
20
24.81645625
30
0
0
VERTEX
8
0
10
46.75645625
20
24.4296
30
0
0
VERTEX
8
0
10
47.30354375
20
24.4296
30
0
0
SEQEND
0
POLYLINE
66
1
8
16_copper
10
0.0
20
0.0
30
0.0
70
1
0
VERTEX
8
0
10
47.125406250000005
20
24.34609375
30
0
42
0.4603723017827009
0
VERTEX
8
0
10
47.75
20
25.299021875
30
0
0
VERTEX
8
0
10
47.75
20
30
30
0
0
VERTEX
8
0
10
47.749700000000004
20
30.006568750000003
30
0
0
VERTEX
8
0
10
47.749884375
20
30.01310625
30
0
42
0.16113935186375775
0
VERTEX
8
0
10
47.59408125
20
30.457784375000003
30
0
0
VERTEX
8
0
10
47.58528125
20
30.4678
30
0
0
VERTEX
8
0
10
47.5587
20
30.500353125
30
0
0
VERTEX
8
0
10
47.539331250000004
20
30.520087500000002
30
0
42
0.17409489491949384
0
VERTEX
8
0
10
47.086375000000004
20
30.753781250000003
30
0
0
VERTEX
8
0
10
47.073093750000005
20
30.7546375
30
0
0
VERTEX
8
0
10
47.031256250000006
20
30.758865625000002
30
0
0
VERTEX
8
0
10
47.0035625
20
30.759125
30
0
0
VERTEX
8
0
10
46.99
20
30.76
30
0
0
VERTEX
8
0
10
43.68
20
30.76
30
0
0
VERTEX
8
0
10
43.611625000000004
20
30.756878125
30
0
42
0.8955673841012921
0
VERTEX
8
0
10
43.583625000000005
20
29.26621875
30
0
0
VERTEX
8
0
10
43.68
20
29.26
30
0
0
VERTEX
8
0
10
46.25
20
29.26
30
0
0
VERTEX
8
0
10
46.25
20
25.12
30
0
0
VERTEX
8
0
10
46.2503
20
25.11343125
30
0
0
VERTEX
8
0
10
46.250115625
20
25.10689375
30
0
42
0.03208127641319001
0
VERTEX
8
0
10
46.258696875000005
20
25.011178125
30
0
0
VERTEX
8
0
10
46.262468750000004
20
24.983815625000002
30
0
0
VERTEX
8
0
10
46.263946875
20
24.977443750000003
30
0
0
VERTEX
8
0
10
46.264959375000004
20
24.970950000000002
30
0
42
0.11209804198170364
0
VERTEX
8
0
10
46.405918750000005
20
24.662215625
30
0
0
VERTEX
8
0
10
46.41471875
20
24.6522
30
0
0
VERTEX
8
0
10
46.441300000000005
20
24.619646875
30
0
0
VERTEX
8
0
10
46.46066875
20
24.599912500000002
30
0
0
VERTEX
8
0
10
46.469668750000004
20
24.58966875
30
0
0
VERTEX
8
0
10
46.499668750000005
20
24.55966875
30
0
42
0.2083527902192661
0
VERTEX
8
0
10
47.057187500000005
20
24.34049375
30
0
0
SEQEND
0
POLYLINE
66
1
8
1_copper
10
0.0
20
0.0
30
0.0
70
1
0
VERTEX
8
0
10
18.644875000000003
20
7.826806250000001
30
0
42
0.9366029202216614
0
VERTEX
8
0
10
18.5395
20
11.0457
30
0
0
VERTEX
8
0
10
15.2081
20
11.0457
30
0
0
VERTEX
8
0
10
15.102725000000001
20
11.03879375
30
0
42
0.9366029202216614
0
VERTEX
8
0
10
15.2081
20
7.8199000000000005
30
0
0
VERTEX
8
0
10
18.5395
20
7.8199000000000005
30
0
0
SEQEND
0
POLYLINE
66
1
8
16_copper
10
0.0
20
0.0
30
0.0
70
1
0
VERTEX
8
0
10
27.108375000000002
20
7.623121875000001
30
0
42
0.8955673841012921
0
VERTEX
8
0
10
27.136375
20
9.11378125
30
0
0
VERTEX
8
0
10
27.040000000000003
20
9.120000000000001
30
0
0
VERTEX
8
0
10
22.940662500000002
20
9.120000000000001
30
0
0
VERTEX
8
0
10
22.09753125
20
9.96313125
30
0
0
VERTEX
8
0
10
22.0926625
20
9.967571875
30
0
0
VERTEX
8
0
10
22.08818125
20
9.972315625
30
0
42
0.1611399997574087
0
VERTEX
8
0
10
21.663575
20
10.17658125
30
0
0
VERTEX
8
0
10
21.65029375
20
10.1774375
30
0
0
VERTEX
8
0
10
21.60845625
20
10.181665625
30
0
0
VERTEX
8
0
10
21.580762500000002
20
10.181925
30
0
0
VERTEX
8
0
10
21.5672
20
10.1828
30
0
0
VERTEX
8
0
10
19.915200000000002
20
10.1828
30
0
0
VERTEX
8
0
10
19.9099125
20
10.193521875
30
0
42
0.26794949279024166
0
VERTEX
8
0
10
18.5395
20
11.0457
30
0
0
VERTEX
8
0
10
15.2081
20
11.0457
30
0
0
VERTEX
8
0
10
15.102725000000001
20
11.03879375
30
0
42
0.9366029202216614
0
VERTEX
8
0
10
15.2081
20
7.8199000000000005
30
0
0
VERTEX
8
0
10
18.5395
20
7.8199000000000005
30
0
0
VERTEX
8
0
10
18.644875000000003
20
7.826806250000001
30
0
42
0.25048737196819415
0
VERTEX
8
0
10
19.9099125
20
8.672078125
30
0
0
VERTEX
8
0
10
19.915200000000002
20
8.6828
30
0
0
VERTEX
8
0
10
21.2565375
20
8.6828
30
0
0
VERTEX
8
0
10
22.09966875
20
7.83966875
30
0
0
VERTEX
8
0
10
22.1045375
20
7.835228125
30
0
0
VERTEX
8
0
10
22.10901875
20
7.830484375
30
0
42
0.1611399997574087
0
VERTEX
8
0
10
22.533625
20
7.6262187500000005
30
0
0
VERTEX
8
0
10
22.546906250000003
20
7.6253625000000005
30
0
0
VERTEX
8
0
10
22.588743750000003
20
7.6211343750000005
30
0
0
VERTEX
8
0
10
22.6164375
20
7.620875000000001
30
0
0
VERTEX
8
0
10
22.630000000000003
20
7.62
30
0
0
VERTEX
8
0
10
27.040000000000003
20
7.62
30
0
0
SEQEND
0
POLYLINE
66
1
8
1_copper
10
0.0
20
0.0
30
0.0
70
1
0
VERTEX
8
0
10
18.644875000000003
20
13.84660625
30
0
42
0.9366029202216614
0
VERTEX
8
0
10
18.5395
20
17.0655
30
0
0
VERTEX
8
0
10
15.2081
20
17.0655
30
0
0
VERTEX
8
0
10
15.102725000000001
20
17.05859375
30
0
42
0.9366029202216614
0
VERTEX
8
0
10
15.2081
20
13.8397
30
0
0
VERTEX
8
0
10
18.5395
20
13.8397
30
0
0
SEQEND
0
POLYLINE
66
1
8
16_copper
10
0.0
20
0.0
30
0.0
70
1
0
VERTEX
8
0
10
18.644875000000003
20
13.84660625
30
0
42
0.25048737196819415
0
VERTEX
8
0
10
19.9099125
20
14.691878125
30
0
0
VERTEX
8
0
10
19.915200000000002
20
14.7026
30
0
0
VERTEX
8
0
10
26.699525
20
14.7026
30
0
0
VERTEX
8
0
10
26.73403125
20
14.68525
30
0
42
0.7430914020047845
0
VERTEX
8
0
10
27.67334375
20
15.771718750000002
30
0
0
VERTEX
8
0
10
27.63408125
20
15.827784375
30
0
0
VERTEX
8
0
10
27.570331250000002
20
15.90033125
30
0
0
VERTEX
8
0
10
27.487731250000003
20
15.98293125
30
0
42
0.16562544926681777
0
VERTEX
8
0
10
27.053775
20
16.19638125
30
0
0
VERTEX
8
0
10
27.04049375
20
16.1972375
30
0
0
VERTEX
8
0
10
26.99865625
20
16.201465625
30
0
0
VERTEX
8
0
10
26.970962500000002
20
16.201725
30
0
0
VERTEX
8
0
10
26.9574
20
16.2026
30
0
0
VERTEX
8
0
10
19.915200000000002
20
16.2026
30
0
0
VERTEX
8
0
10
19.9099125
20
16.213321875000002
30
0
42
0.26794949279024166
0
VERTEX
8
0
10
18.5395
20
17.0655
30
0
0
VERTEX
8
0
10
15.2081
20
17.0655
30
0
0
VERTEX
8
0
10
15.102725000000001
20
17.05859375
30
0
42
0.9366029202216614
0
VERTEX
8
0
10
15.2081
20
13.8397
30
0
0
VERTEX
8
0
10
18.5395
20
13.8397
30
0
0
SEQEND
0
POLYLINE
66
1
8
1_copper
10
0.0
20
0.0
30
0.0
70
1
0
VERTEX
8
0
10
26.373943750000002
20
26.9953375
30
0
42
0.9063472543261978
0
VERTEX
8
0
10
26.299434375
20
28.512
30
0
0
VERTEX
8
0
10
24.700565625
20
28.512
30
0
0
VERTEX
8
0
10
24.62605625
20
28.504662500000002
30
0
42
0.9063472543261978
0
VERTEX
8
0
10
24.700565625
20
26.988
30
0
0
VERTEX
8
0
10
26.299434375
20
26.988
30
0
0
SEQEND
0
POLYLINE
66
1
8
1_copper
10
0.0
20
0.0
30
0.0
70
1
0
VERTEX
8
0
10
20.753075000000003
20
20.98400625
30
0
42
0.9366029202216614
0
VERTEX
8
0
10
20.6477
20
24.2029
30
0
0
VERTEX
8
0
10
17.316300000000002
20
24.2029
30
0
0
VERTEX
8
0
10
17.210925
20
24.19599375
30
0
42
0.9366029202216614
0
VERTEX
8
0
10
17.316300000000002
20
20.9771
30
0
0
VERTEX
8
0
10
20.6477
20
20.9771
30
0
0
SEQEND
0
POLYLINE
66
1
8
16_copper
10
0.0
20
0.0
30
0.0
70
1
0
VERTEX
8
0
10
20.753075000000003
20
20.98400625
30
0
42
0.9366029202216614
0
VERTEX
8
0
10
20.6477
20
24.2029
30
0
0
VERTEX
8
0
10
19.732
20
24.2029
30
0
0
VERTEX
8
0
10
19.732
20
27.05
30
0
0
VERTEX
8
0
10
24.436746875
20
27.05
30
0
0
VERTEX
8
0
10
24.480981250000003
20
27.031678125000003
30
0
42
0.07376423770321106
0
VERTEX
8
0
10
24.700565625
20
26.988
30
0
0
VERTEX
8
0
10
26.299434375
20
26.988
30
0
0
VERTEX
8
0
10
26.373943750000002
20
26.9953375
30
0
42
0.9063472543261978
0
VERTEX
8
0
10
26.299434375
20
28.512
30
0
0
VERTEX
8
0
10
25.684971875000002
20
28.512
30
0
0
VERTEX
8
0
10
25.679828125
20
28.513918750000002
30
0
42
0.04567960774865306
0
VERTEX
8
0
10
25.546375
20
28.543781250000002
30
0
0
VERTEX
8
0
10
25.533093750000003
20
28.5446375
30
0
0
VERTEX
8
0
10
25.491256250000003
20
28.548865625
30
0
0
VERTEX
8
0
10
25.463562500000002
20
28.549125
30
0
0
VERTEX
8
0
10
25.450000000000003
20
28.55
30
0
0
VERTEX
8
0
10
19.2
20
28.55
30
0
0
VERTEX
8
0
10
19.19343125
20
28.5497
30
0
0
VERTEX
8
0
10
19.18689375
20
28.549884375
30
0
42
0.16113935186375775
0
VERTEX
8
0
10
18.742215625
20
28.394081250000003
30
0
0
VERTEX
8
0
10
18.732200000000002
20
28.385281250000002
30
0
0
VERTEX
8
0
10
18.699646875000003
20
28.358700000000002
30
0
0
VERTEX
8
0
10
18.6799125
20
28.33933125
30
0
0
VERTEX
8
0
10
18.66966875
20
28.33033125
30
0
0
VERTEX
8
0
10
18.45166875
20
28.11233125
30
0
0
VERTEX
8
0
10
18.447228125000002
20
28.1074625
30
0
0
VERTEX
8
0
10
18.442484375
20
28.102981250000003
30
0
42
0.1611399997574087
0
VERTEX
8
0
10
18.23821875
20
27.678375000000003
30
0
0
VERTEX
8
0
10
18.2373625
20
27.66509375
30
0
0
VERTEX
8
0
10
18.233134375000002
20
27.62325625
30
0
0
VERTEX
8
0
10
18.232875
20
27.5955625
30
0
0
VERTEX
8
0
10
18.232
20
27.582
30
0
0
VERTEX
8
0
10
18.232
20
24.2029
30
0
0
VERTEX
8
0
10
17.316300000000002
20
24.2029
30
0
0
VERTEX
8
0
10
17.210925
20
24.19599375
30
0
42
0.9366029202216614
0
VERTEX
8
0
10
17.316300000000002
20
20.9771
30
0
0
VERTEX
8
0
10
20.6477
20
20.9771
30
0
0
SEQEND
0
CIRCLE
8
drills_PTH
10
36.093
20
46.45
30
0
40
2.0574
0
CIRCLE
8
drills_PTH
10
5.867
20
46.45
30
0
40
2.0574
0
CIRCLE
8
drills_PTH
10
4.758
20
22.59
30
0
40
1.1049
0
CIRCLE
8
drills_PTH
10
18.982
20
22.59
30
0
40
1.1049
0
CIRCLE
8
drills_PTH
10
6.8662
20
15.4526
30
0
40
1.1049
0
CIRCLE
8
drills_PTH
10
16.8738
20
15.4526
30
0
40
1.1049
0
CIRCLE
8
drills_PTH
10
6.8662
20
9.4328
30
0
40
1.1049
0
CIRCLE
8
drills_PTH
10
16.8738
20
9.4328
30
0
40
1.1049
0
CIRCLE
8
drills_PTH
10
6.8662
20
4.8354
30
0
40
1.1049
0
CIRCLE
8
drills_PTH
10
16.8738
20
4.8354
30
0
40
1.1049
0
CIRCLE
8
drills_PTH
10
27.040000000000003
20
8.370000000000001
30
0
40
1
0
CIRCLE
8
drills_PTH
10
27.040000000000003
20
15.370000000000001
30
0
40
1
0
CIRCLE
8
drills_PTH
10
19.202
20
40.989000000000004
30
0
40
0.5969
0
CIRCLE
8
drills_PTH
10
19.202
20
51.911
30
0
40
0.5969
0
CIRCLE
8
drills_PTH
10
36.47
20
29.75
30
0
40
0.508
0
CIRCLE
8
drills_PTH
10
36.47
20
27.21
30
0
40
0.508
0
CIRCLE
8
drills_PTH
10
36.47
20
24.67
30
0
40
0.508
0
CIRCLE
8
drills_PTH
10
25.5
20
30.290000000000003
30
0
40
0.508
0
CIRCLE
8
drills_PTH
10
25.5
20
27.75
30
0
40
0.508
0
CIRCLE
8
drills_PTH
10
25.5
20
25.21
30
0
40
0.508
0
CIRCLE
8
drills_PTH
10
36.95
20
15.680000000000001
30
0
40
0.5
0
CIRCLE
8
drills_PTH
10
36.95
20
9.58
30
0
40
0.5
0
CIRCLE
8
drills_PTH
10
41.75
20
12.58
30
0
40
0.5
0
CIRCLE
8
drills_PTH
10
41.14
20
30.01
30
0
40
0.40640000000000004
0
CIRCLE
8
drills_PTH
10
43.68
20
30.01
30
0
40
0.40640000000000004
0
CIRCLE
8
drills_PTH
10
39.410000000000004
20
25.09
30
0
40
0.40640000000000004
0
CIRCLE
8
drills_PTH
10
47.03
20
25.09
30
0
40
0.40640000000000004
0
CIRCLE
8
drills_PTH
10
38.72
20
34.53
30
0
40
0.40640000000000004
0
CIRCLE
8
drills_PTH
10
28.560000000000002
20
34.53
30
0
40
0.40640000000000004
0
CIRCLE
8
drills_PTH
10
30.53
20
21.580000000000002
30
0
40
0.40640000000000004
0
CIRCLE
8
drills_PTH
10
30.53
20
31.740000000000002
30
0
40
0.40640000000000004
0
ENDSEC
0
EOF